<?xml version="1.0" standalone="no"?>
<!DOCTYPE svg PUBLIC "-//W3C//DTD SVG 1.1//EN" "http://www.w3.org/Graphics/SVG/1.1/DTD/svg11.dtd" >
<svg xmlns="http://www.w3.org/2000/svg">
<metadata></metadata>
<defs>
<font id="adelle_lfsemibold" horiz-adv-x="649" >
<font-face units-per-em="2048" ascent="1546" descent="-502" />
<missing-glyph horiz-adv-x="438" />
<glyph horiz-adv-x="2048" />
<glyph horiz-adv-x="2048" />
<glyph unicode="&#xd;" horiz-adv-x="438" />
<glyph unicode=" "  horiz-adv-x="438" />
<glyph unicode="&#x09;" horiz-adv-x="438" />
<glyph unicode="&#xa0;" horiz-adv-x="438" />
<glyph unicode="!" horiz-adv-x="552" d="M373 391h-195l-33 744v348h256v-348zM428 117q0 -141 -152 -142q-152 0 -151.5 141.5t151.5 141.5q74 0 113 -36t39 -105z" />
<glyph unicode="&#x22;" horiz-adv-x="774" d="M326 915h-222v531h222v-531zM670 915h-222v531h222v-531z" />
<glyph unicode="#" horiz-adv-x="1243" d="M817 0h-174l41 270h-219l-41 -270h-174l39 270h-221l36 164h211l43 275h-223l35 165h213l35 238h176l-37 -238h217l35 238h174l-37 -238h225l-32 -165h-217l-39 -275h223l-35 -164h-213zM709 434l41 275h-218l-43 -275h220z" />
<glyph unicode="$" horiz-adv-x="1064" d="M952 1032l-161 17l-27 161q-6 30 -21 37q-36 19 -114 29v-451q62 -19 105 -37t94.5 -50.5t82.5 -72.5t52.5 -102.5t21.5 -140.5q0 -178 -96.5 -279t-259.5 -133v-174h-166v162q-118 1 -233 25t-167 51v342h160l39 -176q3 -19 8 -26t23 -13q109 -28 170 -29v465 q-45 15 -75 27t-72.5 33t-70.5 41.5t-59.5 52t-50 67.5t-31 85t-12.5 106q0 172 103 271t268 126v172h166v-164q165 -7 323 -72v-350zM313 1073q0 -74 34.5 -117t115.5 -79v389q-150 -43 -150 -193zM762 393q0 72 -34.5 117t-98.5 76v-393q133 46 133 200z" />
<glyph unicode="%" horiz-adv-x="1665" d="M416 766q-91 0 -158 28.5t-104 80t-54.5 114t-17.5 137.5q0 176 89 279.5t261 103.5q170 0 251 -93.5t81 -262.5q0 -178 -90 -282.5t-258 -104.5zM489 -35h-221l899 1518h219zM424 907q81 0 115 60.5t34 177.5q0 108 -33 164.5t-114 56.5t-117.5 -62.5t-36.5 -164.5 q0 -113 34.5 -172.5t117.5 -59.5zM1237 -25q-91 0 -157.5 29t-104 80t-55 113.5t-17.5 138.5q0 176 89 279.5t261 103.5q170 0 250 -94t80 -263q0 -178 -89 -282.5t-257 -104.5zM1395 354q0 108 -33.5 164.5t-114.5 56.5t-117 -62t-36 -165q0 -113 33.5 -172t115.5 -59 t117 60t35 177z" />
<glyph unicode="&#x26;" horiz-adv-x="1466" d="M1401 0h-291l-139 166q-170 -190 -436 -191q-206 0 -329.5 109.5t-123.5 306.5q0 155 84.5 264t249.5 162q-47 69 -70.5 127t-23.5 133q0 143 98.5 225t263.5 82q94 0 189.5 -25.5t146.5 -53.5v-295l-170 8l-27 139q-3 16 -8.5 23.5t-19.5 11.5q-40 12 -99 12 q-75 0 -113 -34t-38 -95t30.5 -115t116.5 -153l256 -301q54 182 62 287h301v-129l-94 -19q-18 -3 -24.5 -8.5t-10.5 -26.5q-23 -141 -82 -270l137 -164q18 -22 49 -26l115 -19v-131zM838 313l-310 357q-101 -26 -159 -93t-58 -174q0 -100 61 -169.5t183 -69.5 q175 -1 283 149z" />
<glyph unicode="'" horiz-adv-x="430" d="M326 915h-222v531h222v-531z" />
<glyph unicode="(" horiz-adv-x="663" d="M600 -233l-182 -103q-315 443 -316 909q0 472 334 932l178 -106q-135 -210 -199.5 -404t-64.5 -420q0 -127 18 -238.5t56 -212.5t77 -178t99 -179z" />
<glyph unicode=")" horiz-adv-x="661" d="M238 -336l-181 103q127 203 191.5 390t64.5 427q0 224 -63 410t-195 405l178 106q141 -191 233.5 -429t92.5 -494q0 -259 -87 -484t-234 -434z" />
<glyph unicode="*" horiz-adv-x="968" d="M315 797l-141 110l86 107l172 129l-213 12l-131 45l57 168l131 -45l175 -119l-56 205v137h178v-137l-55 -205h-67l-19 -61l53 -43l-84 -195zM795 907l-142 -110l-86 108l-82 195l54 41l-21 63l176 119l129 45l58 -168l-131 -45l-211 -14l170 -127z" />
<glyph unicode="+" horiz-adv-x="1167" d="M682 256h-201v307h-288v195h288v299h201v-299h291v-195h-291v-307z" />
<glyph unicode="," horiz-adv-x="425" d="M221 -242l-112 37l59 217q5 16 -10 23l-76 26l45 193q60 -2 98.5 -7t76 -19.5t55.5 -43.5t18 -73q0 -47 -37 -121z" />
<glyph unicode="-" d="M602 489h-555v213h555v-213z" />
<glyph unicode="." horiz-adv-x="505" d="M254 -25q-152 0 -152 141.5t152 141.5q150 0 150 -141.5t-150 -141.5z" />
<glyph unicode="/" horiz-adv-x="821" d="M231 -188h-215l576 1734h213z" />
<glyph unicode="0" horiz-adv-x="1169" d="M580 -25q-120 0 -207.5 36t-143 99t-88.5 162t-46 210.5t-13 258.5q0 140 15 252t51 211t94 164.5t148.5 103t209.5 37.5q85 0 154.5 -19.5t120 -53.5t87.5 -87t61.5 -113.5t38.5 -139.5t19.5 -158.5t5.5 -175.5q0 -147 -13.5 -262.5t-48.5 -216.5t-91.5 -167 t-145.5 -103.5t-208 -37.5zM840 750q0 98 -3 167.5t-12 140t-26 116.5t-44 82.5t-67 53.5t-94 17q-65 0 -112 -26.5t-76 -73t-46.5 -123t-23.5 -162.5t-6 -205q0 -94 3.5 -165t13 -141t28 -117t46.5 -85t69 -55.5t96 -17.5q54 0 94.5 17.5t68 55t46 85.5t28.5 119.5 t13.5 144.5t3.5 172z" />
<glyph unicode="1" horiz-adv-x="778" d="M737 0h-663v133l182 12q20 1 26.5 9.5t6.5 31.5v1080q0 20 -6.5 29t-22.5 14l-186 37l16 137h434v-1297q0 -25 5.5 -31.5t27.5 -9.5l180 -14v-131z" />
<glyph unicode="2" horiz-adv-x="1032" d="M983 0h-928v147l418 560q117 156 164 248.5t47 195.5q0 90 -44.5 136t-152.5 46q-111 0 -157.5 -42t-46.5 -161l-215 23q0 89 26 155t66 103.5t98 60.5t113 30t121 7q225 0 328.5 -88.5t103.5 -259.5q0 -131 -53.5 -244.5t-153.5 -248.5l-379 -506h418q14 0 19.5 5.5 t8.5 18.5l31 168h168v-354z" />
<glyph unicode="3" horiz-adv-x="1056" d="M707 793v-9q266 -60 266 -364q0 -201 -131 -323t-348 -122q-146 0 -269 48.5t-202 136.5l133 147q143 -143 333 -143q102 0 174 70t72 198q0 112 -62.5 182t-191.5 70q-69 0 -151 -14v178l108 12q128 15 199.5 93.5t71.5 187.5q0 193 -195 192q-113 0 -163 -42t-50 -161 l-217 23q0 89 26.5 155t67 103.5t101 60.5t116.5 30t123 7q217 0 320.5 -91t103.5 -257q0 -129 -66 -230.5t-169 -137.5z" />
<glyph unicode="4" horiz-adv-x="1128" d="M1063 0h-639v133l209 12q20 1 26.5 9.5t6.5 31.5v215h-607v146l549 936h279v-908h174v-180h-176v-215q0 -19 5.5 -25.5t27.5 -9.5l145 -14v-131zM666 575v658h-9l-376 -658h385z" />
<glyph unicode="5" horiz-adv-x="1079" d="M922 1280h-545l-39 -436q115 88 266 88q180 0 281.5 -115.5t101.5 -335.5q0 -141 -53.5 -254t-165 -182.5t-262.5 -69.5q-152 0 -276.5 48t-209.5 133l136 147q143 -139 336 -139q108 0 183 81t75 228q0 77 -18.5 132t-51 84t-69 41.5t-79.5 12.5q-120 0 -239 -106 l-162 70l51 776h740v-203z" />
<glyph unicode="6" horiz-adv-x="1124" d="M1022 1184l-221 -27q0 96 -39 134t-127 38q-68 0 -120.5 -33t-84 -85t-51.5 -124.5t-28 -140.5t-9 -145q137 111 320 110q184 0 284.5 -114.5t100.5 -325.5q0 -232 -123.5 -364t-333.5 -132q-483 0 -484 750q0 73 7 143.5t24 150t43 148t68.5 133t97.5 110t133 72.5 t170 27q58 0 108.5 -8t100.5 -31t85 -58.5t57 -93.5t22 -134zM350 614q12 -461 248 -460q102 0 154.5 80t52.5 219t-45.5 207.5t-149.5 68.5q-69 0 -140.5 -35t-119.5 -80z" />
<glyph unicode="7" horiz-adv-x="1026" d="M545 0h-250q33 384 176.5 753.5t280.5 526.5h-455q-14 0 -20 -5t-9 -20l-32 -170l-164 -12v410h940v-180q-115 -118 -222 -349.5t-173 -489.5t-72 -464z" />
<glyph unicode="8" horiz-adv-x="1052" d="M743 774q81 -54 131.5 -103.5t80.5 -119t30 -154.5q0 -196 -133 -309t-338 -113q-207 0 -330 104.5t-123 285.5q0 57 14 109.5t32 90.5t54.5 85t60.5 73t71 74q-182 125 -182 325q0 179 120 283t301 104q197 0 301.5 -93t104.5 -257q0 -187 -195 -385zM451 696 q-83 -77 -130 -154t-47 -165q0 -100 63 -167t185 -67q110 0 166.5 64.5t56.5 165.5q0 38 -8.5 70.5t-28.5 61.5t-41.5 51t-60.5 48t-70.5 44.5t-84.5 47.5zM584 864q141 144 141 285q0 93 -55 143.5t-140 50.5q-86 0 -138 -55.5t-52 -144.5q0 -47 20 -88t60 -76.5t75 -59 t89 -55.5z" />
<glyph unicode="9" horiz-adv-x="1132" d="M109 115l108 153q58 -50 135 -80t154 -30q57 0 102.5 23t75 65.5t49.5 90.5t30 110t14.5 110.5t6.5 106.5q-137 -113 -303 -113q-187 0 -292 130t-105 343q0 225 121.5 355t339.5 130q113 0 198.5 -39.5t138.5 -106t86 -163t45.5 -197.5t12.5 -223q0 -87 -5 -163.5 t-20 -160t-39 -151.5t-63.5 -130.5t-92 -105.5t-127 -68.5t-165.5 -25.5q-117 0 -226 36.5t-179 103.5zM782 852q-1 50 -3.5 91t-9 92t-17.5 91.5t-30 80.5t-43 66.5t-60 43t-80 16.5q-109 0 -162 -78.5t-53 -205.5q0 -315 194 -316q73 0 146 37t118 82z" />
<glyph unicode=":" horiz-adv-x="505" d="M254 -25q-152 0 -152 141.5t152 141.5q150 0 150 -141.5t-150 -141.5zM254 782q-152 0 -152 141.5t152 141.5q150 0 150 -141.5t-150 -141.5z" />
<glyph unicode=";" horiz-adv-x="425" d="M221 -242l-112 37l59 217q5 16 -10 23l-76 26l45 193q60 -2 98.5 -7t76 -19.5t55.5 -43.5t18 -73q0 -47 -37 -121zM246 782q-152 0 -152 141.5t152 141.5q150 0 150 -141.5t-150 -141.5z" />
<glyph unicode="&#x3c;" horiz-adv-x="1167" d="M942 184l-782 291v238l774 305l59 -189l-626 -233l632 -229z" />
<glyph unicode="=" horiz-adv-x="1167" d="M971 301h-774v199h774v-199zM971 653h-774v199h774v-199z" />
<glyph unicode="&#x3e;" horiz-adv-x="1167" d="M999 475l-784 -291l-57 183l633 229l-627 233l61 189l774 -305v-238z" />
<glyph unicode="?" horiz-adv-x="1009" d="M516 389h-235v367q67 5 121.5 16t110 34.5t93.5 58t62 89.5t24 125q0 97 -59.5 153t-155.5 56q-106 0 -160 -28q-12 -6 -16.5 -14t-7.5 -29l-21 -123l-186 -15v322q214 82 401 82q105 0 187.5 -20t148.5 -65t100.5 -126t34.5 -195q0 -199 -119.5 -318.5t-322.5 -150.5 v-219zM401 -25q-152 0 -151.5 141.5t151.5 141.5q150 0 150 -141.5t-150 -141.5z" />
<glyph unicode="@" horiz-adv-x="1708" d="M1214 -158l41 -141q-153 -72 -409 -72q-222 0 -385.5 79.5t-256.5 244.5t-93 401q0 239 99.5 423.5t280.5 285t414 100.5q208 0 365 -74.5t246.5 -222.5t89.5 -352q0 -276 -110 -407.5t-296 -131.5q-180 0 -217 148q-75 -71 -136 -109.5t-130 -38.5q-108 0 -166.5 73.5 t-58.5 211.5q0 151 52 275t154.5 201t237.5 77q143 0 278 -65l-53 -328q-19 -103 -22 -174q-2 -14 -2 -39q0 -61 43 -72q20 -10 41 -10q18 0 43 6q72 16 120 110t48 251q0 250 -134 383t-401 133q-117 0 -216 -34t-171 -94t-122.5 -141.5t-75.5 -177.5t-25 -203 q0 -287 153.5 -433t425.5 -146q174 0 348 63zM971 264l61 387q-45 29 -112 29q-103 0 -177.5 -112.5t-74.5 -278.5q0 -80 21 -118t69 -38t106.5 38t106.5 93z" />
<glyph unicode="A" horiz-adv-x="1499" d="M1487 0h-559v131l168 19l-95 276h-546l-95 -276l164 -19v-131h-512v129l88 23q42 10 52 38l450 1293h289l452 -1297q4 -11 12 -18t15 -9.5t23 -6.5l94 -23v-129zM950 606l-217 649h-6l-219 -649h442z" />
<glyph unicode="B" horiz-adv-x="1374" d="M737 0h-631v131l130 14q22 3 27 10.5t5 30.5v1108q0 24 -6 32t-26 9l-130 15v133h642q102 0 180.5 -18.5t128.5 -50.5t81.5 -79t44.5 -99t13 -116q0 -135 -72 -222t-178 -122v-6q172 -19 258 -112t86 -248q0 -410 -553 -410zM506 178h196q81 0 137.5 10t105 35.5t73 75.5 t24.5 125q0 246 -303 246h-233v-492zM506 846h141q51 0 93 5.5t84.5 21.5t72 41.5t48 69t18.5 101.5q0 127 -70 173.5t-215 46.5h-172v-459z" />
<glyph unicode="C" horiz-adv-x="1394" d="M1292 424v-338q-83 -53 -218.5 -82t-280.5 -29q-185 0 -322.5 55t-221.5 158.5t-124.5 243t-40.5 318.5q0 132 29 246.5t90 209t149 162t210 104.5t269 37q132 0 254.5 -30t202.5 -82v-359l-174 13l-35 198q-3 27 -28 35q-115 37 -230 37q-227 0 -357 -147.5t-130 -423.5 q0 -289 124.5 -438.5t348.5 -149.5q166 0 254 35q16 5 23 12t10 27l32 188h166z" />
<glyph unicode="D" horiz-adv-x="1558" d="M705 0h-599v131l130 14q22 3 27 10.5t5 30.5v1108q0 24 -6 32t-26 9l-130 15v133h633q375 0 555.5 -188t180.5 -531q0 -173 -47 -312t-139.5 -240.5t-240.5 -156.5t-343 -55zM508 178h182q275 0 407 147t132 416q0 158 -33 267t-101 174t-163 94t-230 29h-194v-1127z" />
<glyph unicode="E" horiz-adv-x="1296" d="M1204 0h-1098v131l130 14q22 3 27 10.5t5 30.5v1108q0 24 -6 32t-26 9l-130 15v133h1053v-369l-174 8l-29 158q-3 15 -10 21t-24 6h-414v-471h520v-179h-520v-483h459q17 0 23 4t9 19l33 180h172v-377z" />
<glyph unicode="F" horiz-adv-x="1239" d="M842 0h-736v131l130 14q22 3 27 10.5t5 30.5v1108q0 24 -6 32t-26 9l-130 15v133h1045v-369l-174 8l-29 158q-3 15 -10 21t-25 6h-405v-467h512v-178h-512v-474q0 -25 5 -31t28 -10l301 -16v-131z" />
<glyph unicode="G" horiz-adv-x="1499" d="M1464 567l-86 -8q-18 -2 -25 -7.5t-7 -21.5v-464q-185 -90 -506 -91q-164 0 -292.5 38.5t-214.5 106t-143 166t-81.5 212.5t-24.5 252q0 165 47 302t138 240t235.5 160t329.5 57q127 0 251 -29.5t207 -84.5v-351l-176 15l-33 186q-3 18 -8.5 26.5t-19.5 12.5 q-115 37 -236 37q-225 0 -355 -151t-130 -418q0 -284 133.5 -437t384.5 -153q126 0 227 24q15 3 22 10.5t7 24.5v326h-258l27 153h587v-133z" />
<glyph unicode="H" horiz-adv-x="1662" d="M1556 0h-563v131l129 14q22 3 27.5 10.5t5.5 30.5v488h-647v-486q0 -25 5 -31t28 -10l137 -16v-131h-572v131l130 14q22 3 27 10.5t5 30.5v1110q0 24 -6 32t-26 9l-130 15v131h572v-131l-137 -17q-23 -3 -28 -9t-5 -30v-442h647v442q0 24 -6 32t-27 9l-129 15v131h563 v-131l-129 -17q-23 -3 -27.5 -9t-4.5 -30v-1108q0 -25 5 -31t27 -10l129 -16v-131z" />
<glyph unicode="I" horiz-adv-x="813" d="M717 0h-613v131l150 14q20 1 26.5 9.5t6.5 31.5v1110q0 24 -6.5 32t-26.5 9l-150 15v131h613v-131l-158 -17q-23 -3 -28 -9t-5 -30v-1108q0 -25 5.5 -31t27.5 -10l158 -16v-131z" />
<glyph unicode="J" horiz-adv-x="1042" d="M567 322v976q0 20 -6.5 28t-25.5 9l-179 17v131h621v-131l-137 -17q-23 -3 -28 -9t-5 -30v-983q0 -174 -84.5 -256t-271.5 -82q-111 0 -214 24t-143 50v318l174 -13l23 -143q3 -22 22 -29q49 -18 117 -18q79 0 108 36t29 122z" />
<glyph unicode="K" horiz-adv-x="1519" d="M1483 0h-586v131l127 21l-365 505l-151 -170v-299q0 -25 5 -31t28 -10l137 -16v-131h-572v131l130 14q22 3 27 10.5t5 30.5v1110q0 24 -6 32t-26 9l-130 15v131h572v-131l-137 -17q-23 -3 -28 -9t-5 -30v-555l534 592l-127 17v133h492v-131l-96 -19q-27 -4 -38 -10 t-26 -23l-416 -458l465 -649q12 -20 24 -28.5t38 -12.5l125 -21v-131z" />
<glyph unicode="L" horiz-adv-x="1271" d="M1204 0h-1098v131l130 14q22 3 27 10.5t5 30.5v1108q0 24 -6 32t-26 9l-130 15v133h605v-133l-170 -17q-22 -1 -27.5 -8.5t-5.5 -30.5v-1120h459q17 0 23 4t9 19l33 194h172v-391z" />
<glyph unicode="M" horiz-adv-x="1957" d="M1860 0h-596v131l170 14q20 1 26 9.5t6 31.5v932h-6l-356 -790h-266l-359 800h-4v-940q0 -26 5 -33t28 -8l176 -16v-131h-578v131l130 14q20 1 26 9.5t6 31.5v1108q0 24 -6 32t-26 9l-130 15v133h461l420 -959h6l426 959h441v-131l-138 -17q-23 -3 -27.5 -9t-4.5 -30 v-1110q0 -20 6.5 -29t25.5 -10l138 -16v-131z" />
<glyph unicode="N" horiz-adv-x="1697" d="M1440 0h-266l-711 1171v-983q0 -25 5 -31t28 -10l137 -16v-131h-527v131l130 14q22 3 27 10.5t5 30.5v1110q0 24 -6 32t-26 9l-130 15v133h445l694 -1168v979q0 24 -6 32t-27 9l-129 15v131h527v-131l-137 -17q-23 -3 -28 -9t-5 -30v-1296z" />
<glyph unicode="O" horiz-adv-x="1572" d="M778 -25q-177 0 -311 56.5t-216.5 160.5t-123.5 242.5t-41 310.5q0 164 46.5 303t135 242.5t227 161t312.5 57.5q139 0 253 -37.5t192.5 -104.5t132.5 -160.5t79 -203t25 -235.5q0 -371 -181 -582t-530 -211zM1243 750q0 278 -115.5 419.5t-322.5 141.5 q-215 0 -343 -144.5t-128 -418.5q0 -288 119.5 -431t332.5 -143t335 141.5t122 434.5z" />
<glyph unicode="P" horiz-adv-x="1339" d="M831 0h-725v131l130 14q22 3 27 10.5t5 30.5v1108q0 24 -6 32t-26 9l-130 15v133h658q137 0 236 -34.5t153.5 -96.5t79 -137t24.5 -168q0 -492 -561 -492h-190v-367q0 -25 5 -31t28 -10l292 -16v-131zM506 731h162q59 0 104 6t92 25t77.5 51.5t49.5 88t19 132.5 q0 150 -80 210.5t-240 60.5h-184v-574z" />
<glyph unicode="Q" horiz-adv-x="1572" d="M1163 -195l47 -147q-112 -59 -239 -59q-160 0 -228.5 71.5t-68.5 206.5q0 41 8 107q-153 13 -268.5 74.5t-187.5 162.5t-108 232.5t-36 291.5q0 164 46.5 303t135 242.5t227 161t312.5 57.5q138 0 251.5 -37.5t193 -104.5t133.5 -160.5t79 -203.5t25 -235 q0 -220 -64.5 -385.5t-196.5 -269t-323 -127.5q-6 -40 -6 -80q0 -66 28.5 -97.5t98.5 -31.5q69 -1 141 28zM784 172q212 0 332.5 142.5t120.5 435.5q0 278 -115.5 419.5t-322.5 141.5q-213 0 -341 -144.5t-128 -418.5q0 -288 120.5 -432t333.5 -144z" />
<glyph unicode="R" horiz-adv-x="1390" d="M1384 0h-559v129l136 18l-154 388q-18 48 -47 68t-80 20h-174v-435q0 -25 5 -31t28 -10l131 -16v-131h-564v131l130 14q22 3 27 10.5t5 30.5v1108q0 24 -6 32t-26 9l-130 15v133h656q106 0 189 -23t135 -60.5t84.5 -91.5t45.5 -109.5t13 -121.5q0 -287 -277 -395 q44 -22 66.5 -57.5t56.5 -120.5l123 -314q11 -22 23.5 -28.5t38.5 -9.5l124 -21v-131zM506 797h151q56 0 101 6.5t88 24.5t71.5 47.5t46 78t17.5 113.5q0 135 -80.5 186.5t-257.5 51.5h-137v-508z" />
<glyph unicode="S" horiz-adv-x="1204" d="M885 1081l-29 170q-6 31 -20 39q-18 10 -64.5 21.5t-116.5 11.5q-141 0 -210.5 -57.5t-69.5 -155.5q0 -59 24.5 -98t66.5 -66.5t97 -47t115 -38.5q76 -23 151.5 -51.5t137 -75.5t100.5 -121.5t39 -189.5q0 -123 -44 -208t-120 -138t-177 -77t-214 -24q-70 0 -138.5 8.5 t-129 19.5t-106.5 25.5t-73 26.5v361h175l40 -185q4 -20 9.5 -27t25.5 -14q23 -6 77 -18t132 -12q145 0 225 56t80 175q0 61 -24.5 102.5t-65.5 70t-95 48t-114 35.5q-76 23 -152.5 48.5t-139 71.5t-101.5 118.5t-39 189.5q0 113 41 195t111.5 135t168 78.5t208.5 25.5 q131 0 233 -26.5t162 -48.5v-369z" />
<glyph unicode="T" horiz-adv-x="1366" d="M1061 0h-742v133l211 14q20 1 26.5 9.5t6.5 31.5v1119h-274q-17 0 -23.5 -4.5t-9.5 -18.5l-33 -178h-172v377h1264v-377h-170l-33 178q-3 14 -9 18.5t-24 4.5h-276v-1119q0 -23 5.5 -30t27.5 -8l225 -17v-133z" />
<glyph unicode="U" horiz-adv-x="1611" d="M1147 545v751q0 24 -6 32t-27 9l-129 15v131h547v-131l-137 -17q-23 -3 -28 -9t-5 -30v-786q0 -270 -144.5 -402.5t-416.5 -132.5q-289 0 -420 133.5t-131 407.5v780q0 24 -6 32t-27 9l-129 15v131h571v-131l-137 -17q-23 -3 -28 -9t-5 -30v-745q0 -198 75.5 -287.5 t248.5 -89.5q177 0 255.5 84t78.5 287z" />
<glyph unicode="V" horiz-adv-x="1454" d="M903 0h-321l-430 1294q-4 11 -12 18.5t-15 10t-23 6.5l-92 23l21 131h534v-131l-168 -19l351 -1126h8l344 1126l-164 19l20 131h482v-131l-86 -23q-42 -10 -52 -39z" />
<glyph unicode="W" horiz-adv-x="2074" d="M1595 0h-315l-238 862h-6l-233 -862h-303l-326 1294q-6 18 -15 26t-30 11l-113 21l21 131h559v-131l-178 -19l250 -1091h8l256 952h252l262 -965h10l252 1104l-180 19l20 131h510v-131l-102 -19q-24 -5 -32.5 -11.5t-14.5 -27.5z" />
<glyph unicode="X" horiz-adv-x="1490" d="M1454 0h-571v131l155 19l-317 454l-311 -454l153 -19v-131h-514v127l113 23q32 8 53 38l389 549l-393 557q-10 16 -20 23t-29 12l-101 23l21 131h539v-131l-158 -19l297 -436l307 436l-154 19l21 131h469v-131l-94 -23q-17 -4 -27.5 -12t-24.5 -27l-378 -524l419 -578 q10 -16 20 -22.5t30 -11.5l106 -23v-131z" />
<glyph unicode="Y" horiz-adv-x="1314" d="M1036 0h-714v131l198 14q20 1 26.5 9.5t6.5 31.5v379l-408 729q-9 16 -19 23t-30 12l-92 23l21 131h518v-131l-156 -19l291 -559h10l293 559l-154 19l21 131h463v-131l-86 -23q-40 -11 -51 -39l-381 -721v-381q0 -25 5 -31t27 -10l211 -16v-131z" />
<glyph unicode="Z" horiz-adv-x="1341" d="M1237 0h-1135v154l820 1153h-551q-17 0 -23.5 -4.5t-9.5 -18.5l-39 -190l-172 -7v396h1081v-160l-809 -1149h594q17 0 23.5 4t9.5 19l39 219h172v-416z" />
<glyph unicode="[" horiz-adv-x="573" d="M506 -293h-389v1776h389v-127l-131 -21q-20 -3 -26.5 -10.5t-6.5 -30.5v-1396q0 -24 5.5 -31t27.5 -10l131 -21v-129z" />
<glyph unicode="\" horiz-adv-x="821" d="M805 -188h-215l-574 1734h213z" />
<glyph unicode="]" horiz-adv-x="573" d="M457 -293h-389v129l131 21q22 3 27 10t5 31v1396q0 23 -6 30.5t-26 10.5l-131 21v127h389v-1776z" />
<glyph unicode="^" horiz-adv-x="1175" d="M1114 612h-229l-303 547l-297 -547h-224l404 748h240z" />
<glyph unicode="_" horiz-adv-x="1024" d="M1024 -371h-1024v170h1024v-170z" />
<glyph unicode="`" horiz-adv-x="1024" d="M725 1243l-94 -88l-363 295l142 137z" />
<glyph unicode="a" horiz-adv-x="1120" d="M1085 0h-321l-21 121l-6 2q-155 -147 -360 -148q-74 0 -129 20t-86 49.5t-49.5 71t-23.5 76t-5 74.5q0 152 93 230t284 94l260 20v105q0 53 -6 86.5t-24.5 60.5t-55 39t-94.5 12q-50 0 -78.5 -3.5t-57 -17.5t-41 -45.5t-12.5 -82.5l-221 20q0 75 27 131t67.5 86.5 t99.5 49t109 23.5t111 5q226 0 316.5 -78.5t90.5 -287.5v-527q0 -25 5.5 -31.5t27.5 -9.5l100 -14v-131zM721 281v180l-195 -17q-114 -10 -157 -45t-43 -110q0 -71 32.5 -101t98.5 -30q71 0 142 36t122 87z" />
<glyph unicode="b" horiz-adv-x="1232" d="M381 0h-227q27 153 26 295v1038q0 35 -26 43l-117 39l20 131h357v-577q175 111 338 110q180 0 285.5 -125.5t105.5 -390.5q0 -304 -115.5 -446t-320.5 -142q-184 0 -306 121h-8zM416 786v-503q126 -117 254 -117q229 0 229 383q0 164 -56.5 251t-158.5 87 q-125 -1 -268 -101z" />
<glyph unicode="c" horiz-adv-x="1013" d="M885 227l67 -159q-67 -41 -165 -67t-201 -26q-131 0 -231 40t-161.5 113.5t-91.5 170.5t-30 217q0 141 40.5 249.5t113.5 177t171.5 102.5t218.5 34q105 0 195.5 -23t138.5 -50v-291l-170 8l-24 135q-3 22 -23 29q-48 18 -127 18q-129 0 -209 -89t-80 -281 q0 -371 308 -371q140 0 260 63z" />
<glyph unicode="d" horiz-adv-x="1236" d="M1186 0h-326l-18 121l-13 2q-73 -73 -155 -110.5t-193 -37.5q-185 0 -288 129t-103 406q0 148 33.5 260t93 178.5t135.5 98.5t168 32q178 0 303 -92v348q0 33 -26 41l-117 39l20 131h353v-1360q0 -25 5 -31.5t27 -9.5l101 -14v-131zM817 305v488q-119 98 -237 98 q-126 0 -186 -100.5t-60 -274.5q0 -184 53 -266t160 -82q72 0 142.5 38t127.5 99z" />
<glyph unicode="e" horiz-adv-x="1060" d="M905 236l66 -164q-189 -96 -393 -97q-138 0 -238.5 42t-158 120t-83.5 176t-26 222q0 135 37 240.5t104 171t153.5 99t188.5 33.5q205 0 319.5 -118.5t114.5 -374.5q0 -60 -6 -119h-661q8 -150 73.5 -226.5t208.5 -76.5q74 0 140.5 16.5t160.5 55.5zM324 637h430 q0 141 -55.5 202.5t-147.5 61.5q-94 0 -157 -65.5t-70 -198.5z" />
<glyph unicode="f" horiz-adv-x="858" d="M741 0h-669v133l125 12q20 1 26 9.5t6 31.5v684q0 8 -0.5 11.5t-4 6.5t-11.5 3h-143v168h159v137q0 190 99.5 281.5t300.5 91.5q73 0 127 -11t102.5 -38t74.5 -81.5t28 -133.5l-220 -27q0 76 -27.5 101.5t-95.5 25.5q-91 0 -122 -46t-31 -142v-138q0 -8 0.5 -11.5t4 -6 t11.5 -2.5h330v-168h-346v-698q0 -26 5 -33t28 -8l243 -21v-131z" />
<glyph unicode="g" horiz-adv-x="1134" d="M920 897q31 -41 54 -90t23 -121q0 -90 -32.5 -158.5t-91 -114.5t-136.5 -71t-168 -25q-51 0 -97 4.5t-75 14.5l-94 -156l252 -12q137 -6 238.5 -17.5t168 -39t99.5 -82t33 -146.5q0 -164 -138.5 -254t-406.5 -90q-135 0 -228.5 17.5t-151.5 50.5t-84 79t-26 105 q0 74 36 124t89 99q-51 23 -72.5 56.5t-21.5 70.5q0 59 51 117q25 29 54.5 63.5t58.5 63.5q-72 39 -116 116t-44 185q0 86 30 157.5t87 124t141 82t195 29.5q55 0 107.5 -5t84.5 -15h373v-150zM788 694q0 106 -60 162.5t-169 56.5q-104 0 -170.5 -53t-66.5 -170 q0 -88 52 -146.5t179 -58.5q106 0 170.5 56.5t64.5 152.5zM346 -29q-29 -29 -53.5 -65.5t-24.5 -77.5q0 -72 76 -98.5t211 -26.5q39 0 91 4t99.5 19.5t80 45t32.5 78.5q0 33 -14.5 52.5t-40 30t-61 13.5t-80.5 7z" />
<glyph unicode="h" horiz-adv-x="1286" d="M1245 0h-512v129l96 14q23 3 29 12t6 31v476q0 29 -1.5 50.5t-6 50t-14 48t-25 38t-40.5 28.5t-58 10q-123 0 -281 -111v-590q0 -25 5.5 -31.5t27.5 -9.5l109 -14v-131h-508v129l98 16q22 3 27.5 10.5t5.5 30.5v1147q0 35 -27 43l-117 39l21 131h356v-598 q92 62 174.5 96.5t180.5 34.5q309 0 309 -370v-523q0 -25 5 -31.5t28 -9.5l112 -14v-131z" />
<glyph unicode="i" horiz-adv-x="624" d="M295 1262q-73 0 -113.5 39.5t-40.5 111.5t40.5 112t113.5 40q74 0 114 -39.5t40 -112.5t-40 -112t-114 -39zM592 0h-545v129l123 16q22 3 27.5 10.5t5.5 30.5v660q0 35 -27 43l-113 39l21 131h354v-873q0 -25 5.5 -31.5t27.5 -9.5l121 -14v-131z" />
<glyph unicode="j" horiz-adv-x="606" d="M199 -80v926q0 19 -5 28t-20 15l-127 39l21 131h366v-1182q0 -172 -79 -253t-240 -81q-97 0 -182 29.5t-126 65.5l78 139q31 -22 81.5 -40t101.5 -18q74 0 102.5 45t28.5 156zM293 1262q-73 0 -113.5 39.5t-40.5 111.5t40.5 112t113.5 40q74 0 113.5 -39.5t39.5 -112.5 t-39.5 -112t-113.5 -39z" />
<glyph unicode="k" horiz-adv-x="1232" d="M1217 0h-525v129l117 18l-223 392l-148 -164v-189q0 -25 5.5 -31.5t27.5 -9.5l115 -14v-131h-533v129l117 16q22 3 27.5 10.5t5.5 30.5v1147q0 35 -27 43l-117 39l21 131h358v-940l412 453h250v-131l-113 -23q-18 -3 -27 -8.5t-24 -22.5l-170 -186l291 -506 q12 -19 23.5 -25t37.5 -10l99 -18v-129z" />
<glyph unicode="l" horiz-adv-x="624" d="M586 0h-533v129l117 16q22 3 27.5 10.5t5.5 30.5v1147q0 35 -27 43l-117 39l21 131h358v-1360q0 -25 5.5 -31.5t27.5 -9.5l115 -14v-131z" />
<glyph unicode="m" horiz-adv-x="1849" d="M1288 0v129l107 14q23 4 27.5 13.5t4.5 27.5v482q0 43 -4 82.5t-17 68.5t-39 46.5t-69 17.5q-70 0 -137 -26t-114 -56q4 -27 6 -55.5t2 -59.5v-498q0 -25 5 -30.5t27 -10.5l95 -14v-131h-504v129l108 14q23 4 28 13.5t5 27.5v471q0 45 -3 86t-15.5 73t-38 50.5 t-70.5 18.5q-74 0 -138.5 -32t-115.5 -73v-592q0 -25 5.5 -30.5t27.5 -10.5l100 -14v-131h-499v129l98 16q23 4 28 11.5t5 29.5v660q0 35 -27 43l-113 39l21 131h303l16 -115l9 -2q78 59 161.5 98t188.5 39q74 0 138.5 -25.5t105.5 -97.5q74 47 158.5 85t197.5 38 q86 0 143.5 -24.5t92 -70.5t50 -110.5t15.5 -144.5v-543q0 -25 5 -30.5t28 -10.5l112 -14v-131h-520z" />
<glyph unicode="n" horiz-adv-x="1286" d="M1245 0h-516v129l102 12q20 3 26.5 12t6.5 29v475q0 42 -2.5 71.5t-11 60.5t-24 50t-42.5 31.5t-65 12.5q-134 0 -281 -107v-590q0 -25 5.5 -31.5t27.5 -9.5l109 -14v-131h-508v133l98 12q22 3 27.5 10.5t5.5 30.5v660q0 35 -27 43l-113 39l21 131h303l16 -113l9 -2 q200 135 383 135q161 0 233 -95.5t72 -278.5v-519q0 -25 5 -31.5t28 -9.5l112 -14v-131z" />
<glyph unicode="o" horiz-adv-x="1173" d="M582 -25q-111 0 -197.5 27t-145 74t-96.5 116t-54.5 149.5t-16.5 176.5q0 263 133.5 412t396.5 149q132 0 230 -39.5t156 -112t86 -167.5t28 -215q0 -267 -129 -418.5t-391 -151.5zM858 532q0 193 -64.5 281t-197.5 88q-279 0 -279 -371q0 -381 271 -380q270 -1 270 382z " />
<glyph unicode="p" horiz-adv-x="1249" d="M666 -434h-586v133l84 12q22 3 28.5 11t6.5 32v1092q0 33 -27 43l-113 39l21 131h305l18 -115l7 -2q173 137 360 137q183 0 286 -125t103 -391q0 -85 -11 -162.5t-40.5 -157.5t-75.5 -137.5t-121.5 -94t-173.5 -36.5q-168 0 -307 107v-328q0 -25 6 -32.5t29 -8.5l201 -16 v-131zM434 778v-506q121 -109 252 -108q231 0 232 385q0 178 -58.5 258t-157.5 80q-74 0 -145.5 -34t-122.5 -75z" />
<glyph unicode="q" horiz-adv-x="1208" d="M1186 -434h-551v131l164 16q24 2 30.5 9.5t6.5 29.5v365q-78 -69 -158 -105.5t-189 -36.5q-188 0 -293.5 129t-105.5 406q0 147 34 259t94.5 178.5t136.5 99t167 32.5q168 0 309 -112l27 92h213q-20 -184 -20 -305v-1002q0 -24 5.5 -31t26.5 -10l103 -12v-133zM817 305 v490q-49 40 -113 68t-126 28q-125 0 -184.5 -100.5t-59.5 -274.5q0 -184 54.5 -267t162.5 -83q119 0 266 139z" />
<glyph unicode="r" horiz-adv-x="919" d="M666 0h-594v133l98 12q22 3 27.5 10.5t5.5 30.5v660q0 33 -27 43l-113 39l21 131h305l23 -150l6 -2q132 172 301 172q93 0 160 -18v-336l-185 8l-24 127q-2 14 -7 18.5t-18 4.5q-52 0 -108.5 -33.5t-98.5 -73.5v-588q0 -25 6.5 -32.5t28.5 -8.5l193 -16v-131z" />
<glyph unicode="s" horiz-adv-x="964" d="M696 754l-22 118q-2 20 -23 29q-20 6 -60 13.5t-87 7.5q-98 0 -146.5 -34t-48.5 -95q0 -41 19.5 -68t53.5 -44t78 -28.5t93 -23.5q61 -14 122.5 -34t111 -54.5t80 -90t30.5 -143.5q0 -90 -35 -153.5t-94 -103.5t-138 -57.5t-167 -17.5q-66 0 -129.5 8.5t-115.5 18.5 t-89 22.5t-51 22.5v279l170 -11l20 -125q4 -12 7.5 -18t17.5 -10q20 -6 67.5 -17.5t116.5 -11.5q96 0 150.5 32t54.5 109q0 43 -22.5 70t-60.5 44.5t-86 27.5t-99 22q-59 12 -115.5 30.5t-102.5 51.5t-74 85t-28 134q0 92 36 158t95.5 105.5t136 58t160.5 18.5 q57 0 110.5 -6t99.5 -15t81 -19.5t53 -18.5v-277z" />
<glyph unicode="t" horiz-adv-x="868" d="M768 195l47 -148q-155 -72 -303 -72q-160 0 -232.5 72t-72.5 225v598q0 8 -0.5 11.5t-4 6.5t-12.5 3h-147v145q115 14 171.5 90.5t78.5 219.5h149v-267q0 -8 0.5 -11.5t4.5 -6t12 -2.5h297v-168h-314v-557q0 -97 31.5 -135.5t116.5 -38.5q78 0 178 35z" />
<glyph unicode="u" horiz-adv-x="1282" d="M1227 0h-324l-18 125l-6 2q-88 -70 -176 -111t-207 -41q-162 0 -228.5 83t-66.5 266v532q0 26 -5.5 33.5t-27.5 11.5l-105 25l19 133h354v-684q0 -112 28.5 -161.5t108.5 -49.5q145 0 285 143v549q0 26 -5 33.5t-28 11.5l-98 25l18 133h349v-873q0 -20 5 -29t21 -12 l107 -14v-131z" />
<glyph unicode="v" horiz-adv-x="1220" d="M752 0h-273l-338 870q-6 17 -14 23.5t-29 11.5l-86 19l27 135h483v-135l-137 -17l252 -682h8l254 682l-135 17l22 135h422v-135l-69 -13q-23 -3 -33.5 -9.5t-18.5 -24.5z" />
<glyph unicode="w" horiz-adv-x="1753" d="M1350 0h-256l-195 762h-6l-186 -762h-287l-279 870q-6 17 -14 23.5t-29 11.5l-86 19l27 135h461v-135l-123 -17l196 -671h9l206 794h254l197 -790h8l193 667l-125 17l22 135h404v-135l-74 -13q-25 -4 -35 -12t-16 -29z" />
<glyph unicode="x" horiz-adv-x="1200" d="M1180 0h-525v131l115 19l-199 260l-211 -260l125 -19v-131h-460v129l94 18q23 4 34 11.5t27 25.5l281 336l-281 348q-24 27 -49 35l-86 23l21 133h473v-133l-115 -17l190 -243l207 243l-125 17l21 133h420v-133l-90 -21q-30 -10 -56 -39l-264 -311l295 -369 q30 -33 55 -36l103 -19v-131z" />
<glyph unicode="y" horiz-adv-x="1222" d="M817 -434h-606v135l145 16q25 3 34 12t22 33l104 240l-377 868q-7 17 -15 23.5t-28 11.5l-84 19l27 135h477v-135l-133 -17l256 -633h8l254 633l-135 17l22 135h422v-135l-67 -11q-22 -3 -33 -10t-18 -24l-480 -1160l205 -20v-133z" />
<glyph unicode="z" horiz-adv-x="1024" d="M961 0h-885v135l588 764h-359q-18 0 -22 -27l-25 -122l-170 -11v320h850v-139l-580 -762h381q18 0 23 26l24 148l175 8v-340z" />
<glyph unicode="{" horiz-adv-x="628" d="M565 -166l-20 -137q-211 11 -297 68.5t-86 199.5q0 54 14 186t14 203q0 94 -40 129.5t-121 38.5v137q81 3 121 38.5t40 129.5q0 72 -14 205.5t-14 188.5q0 143 85.5 200t297.5 68l20 -137q-98 -22 -131 -48t-33 -100q0 -51 14.5 -179.5t14.5 -197.5q0 -104 -35.5 -158 t-99.5 -79q65 -27 100 -79.5t35 -156.5q0 -69 -14.5 -195t-14.5 -177q0 -73 33.5 -99.5t130.5 -48.5z" />
<glyph unicode="|" horiz-adv-x="573" d="M393 -293h-213v1839h213v-1839z" />
<glyph unicode="}" horiz-adv-x="628" d="M84 -303l-21 137q97 22 130.5 48.5t33.5 99.5q0 51 -14 177.5t-14 194.5q0 103 35 156t100 80q-65 26 -100 79.5t-35 157.5q0 69 14 197.5t14 179.5q0 74 -32.5 100t-131.5 48l21 137q212 -11 297.5 -68t85.5 -200q0 -54 -14.5 -188t-14.5 -206q0 -94 40.5 -129 t121.5 -39v-137q-81 -3 -121.5 -38t-40.5 -130q0 -72 14.5 -203.5t14.5 -185.5q0 -142 -86 -199.5t-297 -68.5z" />
<glyph unicode="~" horiz-adv-x="1021" d="M854 899l129 -47q-25 -127 -73 -189.5t-140 -62.5q-78 0 -239.5 47t-219.5 47q-49 0 -80 -22.5t-65 -81.5l-125 57q84 240 250 240q81 0 234.5 -47t215.5 -47q47 0 69 23t44 83z" />
<glyph unicode="&#xa1;" horiz-adv-x="552" d="M178 651h195l28 -743v-348h-256v348zM428 926q0 -69 -39 -105.5t-113 -36.5q-152 0 -151.5 141.5t151.5 141.5q152 0 152 -141z" />
<glyph unicode="&#xa2;" horiz-adv-x="1095" d="M688 377q54 3 80 14q11 3 15 9t8 22l22 129l164 8v-283q-106 -61 -289 -73v-203h-166v209q-406 53 -405 504q0 221 108 351.5t297 160.5v213h166v-207q165 -8 285 -72v-282l-162 8l-23 127q-2 10 -4 14t-6.5 8.5t-13.5 7.5q-32 10 -76 17v-682zM367 725q0 -267 155 -330 v643q-155 -62 -155 -313z" />
<glyph unicode="&#xa3;" horiz-adv-x="1142" d="M1075 0h-969l-28 147q100 71 126.5 147t26.5 257v129h-155v178h155v201q0 451 469 450q62 0 113 -7t102 -28t85 -55.5t55.5 -92t21.5 -134.5l-215 -29q0 97 -42 134.5t-128 37.5q-125 0 -175 -67.5t-50 -233.5v-176h352v-178h-352v-131q0 -136 -25.5 -222.5 t-103.5 -164.5h508q14 0 19.5 5.5t8.5 18.5l33 168h168v-354z" />
<glyph unicode="&#xa5;" horiz-adv-x="1245" d="M1079 1290l-293 -450h236v-142h-270v-110h270v-142h-270v-258q0 -26 5 -33t27 -8l209 -16v-131h-712v131l198 14q20 2 26.5 9.5t6.5 33.5v258h-262v142h262v110h-262v142h223l-303 454q-13 16 -22.5 23.5t-26.5 11.5l-92 23l20 131h506v-131l-141 -19l231 -377h8l238 377 l-137 19l20 131h443v-131l-87 -23q-32 -8 -51 -39z" />
<glyph unicode="&#xab;" horiz-adv-x="921" d="M479 211h-198l-179 317l183 308h200l-157 -283q-12 -19 -2 -39zM829 211h-198l-179 317l183 308h200l-157 -283q-12 -19 -2 -39z" />
<glyph unicode="&#xad;" d="M602 489h-555v213h555v-213z" />
<glyph unicode="&#xbb;" horiz-adv-x="919" d="M305 211h-201l154 293q7 13 7.5 19.5t-5.5 19.5l-158 293h201l180 -314zM656 211h-201l154 293q7 13 7.5 19.5t-5.5 19.5l-158 293h201l180 -314z" />
<glyph unicode="&#xbf;" horiz-adv-x="1009" d="M528 653h236v-366q-67 -5 -121.5 -16.5t-110.5 -35t-94 -58t-62 -89t-24 -125.5q0 -97 59.5 -153t155.5 -56q106 0 160 29q12 6 17 13.5t8 29.5l20 123l186 14v-321q-214 -82 -401 -82q-105 0 -187 20t-148 65t-101 126t-35 194q0 199 120 318.5t322 150.5v219zM647 784 q-152 0 -151.5 141.5t151.5 141.5q150 0 150 -141.5t-150 -141.5z" />
<glyph unicode="&#x192;" horiz-adv-x="1132" d="M874 690h-292l-88 -508q-35 -208 -124.5 -295.5t-265.5 -87.5q-81 0 -164 25.5t-128 60.5l67 152q42 -27 103 -47.5t114 -20.5q73 0 113 37t57 137l94 527q3 20 -12 20h-190l28 160h205l53 295q35 191 121.5 277.5t263.5 86.5q164 0 304 -75l-46 -277l-151 12l-2 134 q0 22 -21 28q-31 12 -84 12q-77 0 -113 -46t-52 -142l-52 -285q-3 -20 15 -20h276z" />
<glyph unicode="&#x2000;" horiz-adv-x="809" />
<glyph unicode="&#x2001;" horiz-adv-x="1618" />
<glyph unicode="&#x2002;" horiz-adv-x="809" />
<glyph unicode="&#x2003;" horiz-adv-x="1618" />
<glyph unicode="&#x2004;" horiz-adv-x="539" />
<glyph unicode="&#x2005;" horiz-adv-x="404" />
<glyph unicode="&#x2006;" horiz-adv-x="269" />
<glyph unicode="&#x2007;" horiz-adv-x="269" />
<glyph unicode="&#x2008;" horiz-adv-x="202" />
<glyph unicode="&#x2009;" horiz-adv-x="323" />
<glyph unicode="&#x200a;" horiz-adv-x="89" />
<glyph unicode="&#x2010;" d="M602 489h-555v213h555v-213z" />
<glyph unicode="&#x2011;" d="M602 489h-555v213h555v-213z" />
<glyph unicode="&#x2012;" d="M602 489h-555v213h555v-213z" />
<glyph unicode="&#x2013;" horiz-adv-x="1021" d="M1022 489h-1024v170h1024v-170z" />
<glyph unicode="&#x2014;" horiz-adv-x="2048" d="M2048 489h-2048v173h2048v-173z" />
<glyph unicode="&#x2018;" horiz-adv-x="409" d="M354 1290l-41 -170q-55 1 -92 5.5t-70.5 18t-50 40t-16.5 67.5q0 43 33 113l102 207l107 -35l-52 -199q-6 -17 11 -22z" />
<glyph unicode="&#x2019;" horiz-adv-x="409" d="M193 1120l-105 33l51 199q6 17 -10 22l-70 25l41 172q44 -1 74.5 -4.5t61.5 -12t50 -22t31.5 -38t12.5 -56.5q0 -45 -33 -111z" />
<glyph unicode="&#x201a;" horiz-adv-x="397" d="M205 -260l-105 33l52 198q3 17 -11 23l-69 24l41 172q44 -1 74 -4.5t61.5 -11.5t50 -22t31 -38t12.5 -57q0 -41 -35 -110z" />
<glyph unicode="&#x201c;" horiz-adv-x="737" d="M354 1290l-41 -170q-55 1 -92 5.5t-70.5 18t-50 40t-16.5 67.5q0 43 33 113l102 207l107 -35l-52 -199q-6 -17 11 -22zM682 1290l-41 -170q-55 1 -92 5.5t-70.5 18t-50 40t-16.5 67.5q0 43 33 113l102 207l107 -35l-52 -199q-6 -17 11 -22z" />
<glyph unicode="&#x201d;" horiz-adv-x="737" d="M193 1120l-105 33l51 199q6 17 -10 22l-70 25l41 172q44 -1 74.5 -4.5t61.5 -12t50 -22t31.5 -38t12.5 -56.5q0 -45 -33 -111zM521 1120l-105 33l51 199q6 17 -10 22l-70 25l41 172q44 -1 74.5 -4.5t61.5 -12t50 -22t31.5 -38t12.5 -56.5q0 -45 -33 -111z" />
<glyph unicode="&#x201e;" horiz-adv-x="724" d="M205 -260l-105 33l52 198q3 17 -11 23l-69 24l41 172q44 -1 74 -4.5t61.5 -11.5t50 -22t31 -38t12.5 -57q0 -41 -35 -110zM533 -260l-105 33l52 198q3 17 -11 23l-69 24l41 172q44 -1 74 -4.5t61.5 -11.5t50 -22t31 -38t12.5 -57q0 -41 -35 -110z" />
<glyph unicode="&#x2026;" horiz-adv-x="1261" d="M232 -25q-152 0 -152 141.5t152 141.5q150 0 150 -141.5t-150 -141.5zM647 -25q-152 0 -152 141.5t152 141.5q150 0 150 -141.5t-150 -141.5zM1051 -25q-152 0 -152 141.5t152 141.5q150 0 150 -141.5t-150 -141.5z" />
<glyph unicode="&#x202f;" horiz-adv-x="323" />
<glyph unicode="&#x2039;" horiz-adv-x="571" d="M479 211h-198l-179 317l183 308h200l-157 -283q-12 -19 -2 -39z" />
<glyph unicode="&#x203a;" horiz-adv-x="569" d="M289 211h-201l154 293q7 13 7.5 19.5t-5.5 19.5l-158 293h201l180 -314z" />
<glyph unicode="&#x205f;" horiz-adv-x="404" />
<glyph unicode="&#x20ac;" horiz-adv-x="1153" d="M37 780l26 152h103q39 269 186.5 423t352.5 154q103 0 198.5 -24t147.5 -53v-318l-164 10l-29 154q-3 26 -27 35q-48 18 -118 18q-116 0 -196 -106t-107 -293h378l-26 -152h-365v-47q0 -53 2 -78h344l-26 -151h-305q54 -348 293 -348q85 0 124 18q24 7 27 35l29 153 l164 11v-322q-48 -27 -153.5 -51.5t-211.5 -24.5q-225 0 -356.5 138t-163.5 391h-172l26 151h132v125h-113z" />
<glyph unicode="&#x25fc;" horiz-adv-x="1060" d="M0 1060h1060v-1060h-1060v1060z" />
</font>
</defs>
</svg>
