<?xml version="1.0" standalone="no"?>
<!DOCTYPE svg PUBLIC "-//W3C//DTD SVG 1.1//EN" "http://www.w3.org/Graphics/SVG/1.1/DTD/svg11.dtd" >
<svg xmlns="http://www.w3.org/2000/svg">
<metadata></metadata>
<defs>
<font id="adelle_lfregular" horiz-adv-x="636" >
<font-face units-per-em="2048" ascent="1546" descent="-502" />
<missing-glyph horiz-adv-x="454" />
<glyph horiz-adv-x="2048" />
<glyph horiz-adv-x="2048" />
<glyph unicode="&#xd;" horiz-adv-x="1024" />
<glyph unicode=" "  horiz-adv-x="454" />
<glyph unicode="&#x09;" horiz-adv-x="454" />
<glyph unicode="&#xa0;" horiz-adv-x="454" />
<glyph unicode="!" horiz-adv-x="536" d="M193 383l-29 760v340h207v-340l-25 -760h-153zM406 104q0 -129 -136 -129q-135 0 -135 129t135 129q136 0 136 -129z" />
<glyph unicode="&#x22;" horiz-adv-x="745" d="M119 915v531h184v-531h-184zM443 915v531h184v-531h-184z" />
<glyph unicode="#" horiz-adv-x="1243" d="M659 0l43 285h-247l-43 -285h-148l41 285h-235l30 135h228l47 303h-236l29 137h227l37 252h150l-39 -252h243l39 252h148l-39 -252h235l-26 -137h-230l-43 -303h232l-27 -135h-225l-43 -285h-148zM766 723h-244l-47 -303h248z" />
<glyph unicode="$" horiz-adv-x="1056" d="M471 0h-6q-61 0 -121.5 7t-112 18.5t-91.5 23.5t-60 25v319h123l35 -172q4 -18 10 -26.5t26 -16.5q18 -8 68.5 -20.5t128.5 -12.5v523q-66 20 -131.5 45.5t-116.5 67.5t-82.5 108.5t-31.5 171.5q0 90 27.5 158.5t75.5 116.5t114.5 76t144.5 38v168h145v-162 q100 -4 181.5 -27.5t122.5 -39.5v-330l-125 10l-29 166q-4 23 -8 30t-13 11q-16 10 -47.5 18.5t-81.5 12.5v-498q61 -23 122 -50.5t108 -72.5t75.5 -111.5t28.5 -164.5q0 -90 -25.5 -159t-69.5 -117t-105.5 -77.5t-133.5 -44.5v-176h-145v164zM283 1083q0 -96 54 -145 t134 -80v442q-96 -18 -142 -74.5t-46 -142.5zM778 391q0 94 -46 145.5t-116 81.5v-456q78 25 120 81t42 148z" />
<glyph unicode="%" horiz-adv-x="1634" d="M418 766q-92 0 -153.5 29.5t-100.5 80t-55.5 115t-16.5 135.5q0 84 21.5 155t64.5 121t106.5 78.5t149.5 28.5q174 0 250 -97t76 -259q0 -172 -87 -279.5t-255 -107.5zM270 -35l895 1518h176l-892 -1518h-179zM426 891q100 0 136 69.5t36 184.5q0 51 -7 94t-26.5 75 t-52.5 50t-82 18q-51 0 -85 -21.5t-54.5 -55t-28.5 -77.5t-8 -89q0 -53 8 -99.5t27.5 -79t52.5 -51t84 -18.5zM1202 -25q-92 0 -154.5 30t-101.5 80t-55.5 114.5t-16.5 136.5q0 84 22 154.5t65 121t107.5 79t150.5 28.5t147 -25.5t100 -72t57.5 -113t18.5 -146.5 q0 -172 -86 -279.5t-254 -107.5zM1208 100q100 0 136 70t36 184q0 51 -7 94.5t-26.5 75t-51 50t-81.5 18.5q-51 0 -84.5 -21.5t-54 -55.5t-29 -78t-8.5 -89q0 -53 8.5 -99t28 -79t52 -51.5t81.5 -18.5z" />
<glyph unicode="&#x26;" horiz-adv-x="1452" d="M1122 0l-157 190q-92 -115 -204 -165t-251 -50q-98 0 -179 29t-138.5 83t-89 130t-31.5 170q0 162 90 272.5t266 157.5q-43 53 -74.5 121t-31.5 137q0 76 26.5 132.5t72.5 95t109.5 58t135.5 19.5q49 0 97 -7t90 -18.5t75 -23.5t51 -22v-277l-137 6l-25 140q-4 16 -9 24 t-22 12q-23 10 -51 13.5t-63 3.5q-88 0 -130 -38t-42 -101q0 -35 8 -66t28.5 -64.5t52.5 -75.5t81 -100l276 -327q35 98 49.5 174t20.5 160h268v-109l-92 -16q-18 -4 -25.5 -10.5t-11.5 -26.5q-12 -76 -34.5 -155t-53.5 -144l145 -172q12 -14 22.5 -20.5t31.5 -10.5l112 -18 v-111h-256zM524 698q-121 -23 -195.5 -97.5t-74.5 -209.5q0 -49 15.5 -96t49 -84t86 -59.5t125.5 -22.5q94 0 178.5 44t147.5 136z" />
<glyph unicode="'" horiz-adv-x="421" d="M119 915v531h184v-531h-184z" />
<glyph unicode="(" horiz-adv-x="614" d="M414 -324q-57 86 -111.5 184.5t-97.5 211t-68.5 237.5t-25.5 264t27.5 267.5t71.5 245t102.5 219t119.5 188.5l141 -86q-66 -104 -115.5 -204.5t-83.5 -201t-51.5 -206t-17.5 -220.5q0 -135 20.5 -245.5t55.5 -208.5t81 -187.5t97 -177.5z" />
<glyph unicode=")" horiz-adv-x="614" d="M197 -324l-144 82q53 88 100.5 178.5t82 189.5t55 209.5t20.5 244.5q0 117 -18.5 221t-52 204.5t-82.5 199t-113 202.5l141 86q59 -84 116.5 -185.5t102 -218t72 -245.5t27.5 -266q0 -139 -25.5 -264.5t-68.5 -238t-98.5 -212t-114.5 -187.5z" />
<glyph unicode="*" horiz-adv-x="964" d="M180 903l84 103l166 137l-213 26l-127 45l51 146l127 -45l181 -111l-43 209v133h153v-133l-43 -209h-67l-19 -61l53 -45l-98 -187l-86 -106zM666 805l-84 106l-99 187l54 43l-21 63l182 111l125 45l51 -146l-126 -45l-211 -28l163 -135l86 -103z" />
<glyph unicode="+" horiz-adv-x="1167" d="M498 262v313h-301v166h301v308h170v-308h301v-166h-301v-313h-170z" />
<glyph unicode="," horiz-adv-x="378" d="M82 -207l61 215q2 14 -10 21l-72 28l45 170q49 -2 90.5 -7t71 -18.5t46 -39t16.5 -66.5q0 -29 -10.5 -55.5t-22.5 -52.5l-119 -230z" />
<glyph unicode="-" d="M41 506v182h555v-182h-555z" />
<glyph unicode="." horiz-adv-x="434" d="M352 104q0 -129 -135 -129t-135 129t135 129q66 0 100.5 -31.5t34.5 -97.5z" />
<glyph unicode="/" horiz-adv-x="772" d="M14 -188l576 1734h168l-574 -1734h-170z" />
<glyph unicode="0" horiz-adv-x="1150" d="M565 -25q-152 0 -245 57.5t-143 159t-67.5 240.5t-17.5 305q0 162 21.5 303.5t77 246t151.5 163.5t248 59t244 -59t142 -160.5t66.5 -238t16.5 -287.5q0 -170 -20.5 -314.5t-75 -250t-150.5 -165t-248 -59.5zM573 125q94 0 151.5 46t88.5 128t41 196.5t10 254.5 q0 135 -8 246.5t-36.5 190.5t-84 123t-149.5 44q-96 0 -154.5 -44t-90.5 -126t-43 -196t-11 -255q0 -129 9 -240.5t39 -193.5t86 -128t152 -46z" />
<glyph unicode="1" horiz-adv-x="753" d="M72 0v113l190 12q23 4 28 11t5 30v1122q0 23 -6 31t-23 12l-192 37l12 115h395v-1317q0 -25 5.5 -31t27.5 -10l188 -14v-111h-630z" />
<glyph unicode="2" horiz-adv-x="1013" d="M59 0v121l430 567q106 139 166 244.5t60 220.5q0 102 -55.5 155.5t-188.5 53.5q-59 0 -102 -8t-71 -32t-42 -66t-14 -107l-174 18q0 111 36.5 178.5t96 103.5t133.5 48t147 12q227 0 324.5 -91t97.5 -253q0 -74 -19.5 -142.5t-51 -133t-72.5 -126t-86 -118.5l-387 -506 h479q16 0 21.5 4t9.5 19l30 174h136v-336h-904z" />
<glyph unicode="3" horiz-adv-x="1034" d="M672 788q266 -66 266 -370q0 -94 -30.5 -175t-90 -140.5t-144.5 -93.5t-194 -34q-145 0 -260 47.5t-192 133.5l112 125q66 -68 148 -108t192 -40q51 0 99.5 16.5t86 52.5t60.5 90t23 132q0 57 -15.5 108.5t-50.5 89t-89 60.5t-134 23q-35 0 -67 -3.5t-77 -11.5v150 l127 12q72 6 124 33.5t86 67.5t50.5 90.5t16.5 103.5q0 98 -51.5 156.5t-169.5 58.5q-59 0 -103.5 -8t-74 -32t-45 -64.5t-15.5 -108.5l-174 18q0 111 38 178.5t97.5 103.5t133 48t147.5 12q109 0 185.5 -25.5t125.5 -72.5t71.5 -111.5t22.5 -140.5q0 -123 -63.5 -223 t-171.5 -139v-9z" />
<glyph unicode="4" horiz-adv-x="1110" d="M459 0v111l192 14q23 2 28 10t5 31v258h-629v115l582 944h227v-918h178v-147h-180v-256q0 -23 5 -28t28 -9l139 -14v-111h-575zM686 1288l-446 -723h446v723z" />
<glyph unicode="5" horiz-adv-x="1056" d="M334 1321l-37 -481q47 41 115.5 66.5t148.5 25.5q178 0 286.5 -107.5t108.5 -341.5q0 -109 -30.5 -202t-91 -160.5t-148.5 -106.5t-205 -39q-141 0 -260 47.5t-194 127.5l112 124q59 -59 145.5 -100t192.5 -41q55 0 106.5 17.5t92.5 57.5t65.5 104.5t24.5 156.5 q0 94 -20.5 154.5t-54.5 94.5t-77 47t-90 13q-88 0 -150.5 -35.5t-109.5 -78.5l-135 59l49 760h719v-162h-563z" />
<glyph unicode="6" horiz-adv-x="1120" d="M825 1184q0 102 -46 140t-140 38q-102 0 -165.5 -55.5t-99.5 -141.5t-49.5 -188.5t-13.5 -196.5q53 45 142.5 88t201.5 43q186 0 280.5 -113.5t94.5 -332.5q0 -113 -30.5 -203t-88 -153.5t-139.5 -98.5t-184 -35q-143 0 -233.5 65.5t-142.5 172t-71.5 242t-19.5 274.5 q0 78 9 166t31.5 174t61.5 166t98.5 141.5t141.5 97t190 35.5q59 0 122 -12t113 -46t81.5 -93.5t31.5 -153.5zM313 627q2 -57 12.5 -143.5t40 -167t84 -138t144.5 -57.5q129 0 187.5 88t58.5 240q0 160 -49.5 237.5t-172.5 77.5q-45 0 -91 -14.5t-88 -36t-75 -45t-51 -41.5z " />
<glyph unicode="7" horiz-adv-x="999" d="M305 0q18 209 69.5 412.5t119 381t142.5 314.5t140 213h-497q-29 0 -31 -23l-37 -180l-129 -10v375h907v-142q-59 -59 -116.5 -150t-108.5 -201.5t-96 -236.5t-80 -255t-57.5 -256t-28.5 -242h-197z" />
<glyph unicode="8" horiz-adv-x="1067" d="M719 774q55 -37 104 -76t85 -84t56.5 -100t20.5 -123q0 -92 -32.5 -169t-92 -131t-144.5 -85t-190 -31q-199 0 -316.5 100.5t-117.5 276.5q0 135 69.5 241.5t184.5 203.5q-43 31 -80 64.5t-63.5 72.5t-42 87t-15.5 109q0 82 31 152t84 121t128 78.5t161 27.5 q102 0 177 -26.5t123 -72.5t71.5 -108.5t23.5 -132.5q0 -57 -20.5 -113.5t-53 -106.5t-72.5 -95t-79 -80zM473 725q-98 -92 -152.5 -176t-54.5 -182q0 -104 70 -177t205 -73q61 0 109 21.5t81 57t50.5 83t17.5 98.5q0 63 -24.5 112.5t-67.5 89t-103.5 74.5t-130.5 72z M590 842q74 72 127 152.5t53 158.5q0 106 -63.5 160.5t-161.5 54.5t-158.5 -64.5t-60.5 -156.5q0 -55 21.5 -98t58 -80t84 -67.5t100.5 -59.5z" />
<glyph unicode="9" horiz-adv-x="1130" d="M227 240q63 -55 138 -83t155 -28q68 0 117 27.5t83 73.5t55.5 104.5t32.5 121t15 124t6 110.5q-55 -51 -139 -93t-196 -42q-100 0 -174 37t-121 100.5t-71 148.5t-24 183q0 109 30 198t88.5 153.5t142.5 99t192 34.5q143 0 232.5 -61.5t140.5 -162.5t69.5 -234t18.5 -277 q0 -127 -17.5 -267t-69.5 -259t-150.5 -196t-258.5 -77q-104 0 -209.5 32t-177.5 99zM825 852q-2 76 -11 166t-37.5 167t-83 128t-146.5 51q-123 0 -186.5 -87t-63.5 -228q0 -72 12.5 -134.5t39 -109.5t68.5 -75t101 -28q49 0 95 14.5t86 37t73 49t53 49.5z" />
<glyph unicode=":" horiz-adv-x="434" d="M352 104q0 -129 -135 -129t-135 129t135 129q66 0 100.5 -31.5t34.5 -97.5zM352 911q0 -129 -135 -129t-135 129t135 129q66 0 100.5 -31.5t34.5 -97.5z" />
<glyph unicode=";" horiz-adv-x="378" d="M82 -207l61 215q2 14 -10 21l-72 28l45 170q49 -2 90.5 -7t71 -18.5t46 -39t16.5 -66.5q0 -29 -10.5 -55.5t-22.5 -52.5l-119 -230zM345 911q0 -129 -135 -129t-135 129t135 129q66 0 100.5 -31.5t34.5 -97.5z" />
<glyph unicode="&#x3c;" horiz-adv-x="1167" d="M170 489v205l762 316l55 -156l-647 -256l653 -248l-49 -157z" />
<glyph unicode="=" horiz-adv-x="1167" d="M201 326v170h766v-170h-766zM201 657v170h766v-170h-766z" />
<glyph unicode="&#x3e;" horiz-adv-x="1167" d="M219 193l-49 157l653 248l-647 256l55 156l760 -316v-205z" />
<glyph unicode="?" horiz-adv-x="972" d="M285 381v362q80 6 155.5 24.5t135 56.5t96.5 101.5t37 159.5q0 111 -67 175.5t-193 64.5q-68 0 -111 -9t-66 -22q-10 -6 -14 -14t-8 -31l-21 -116l-145 -11v287q51 20 151.5 47t221.5 27q98 0 182 -19.5t144.5 -64.5t94 -122t33.5 -190q0 -106 -31.5 -187t-90 -137 t-139.5 -91t-179 -51v-240h-186zM514 104q0 -129 -135 -129t-135 129t135 129t135 -129z" />
<glyph unicode="@" horiz-adv-x="1697" d="M1249 -283q-49 -23 -151.5 -47t-255.5 -24q-164 0 -299 45t-232.5 136t-151 227t-53.5 319q0 178 58.5 325.5t163 253t251 164t322.5 58.5q158 0 286 -43.5t219 -126t140 -203.5t49 -277q0 -147 -30.5 -249.5t-84 -167t-126 -93t-158.5 -28.5q-102 0 -151.5 42t-61.5 109 q-61 -59 -128 -105t-146 -46q-109 0 -165.5 71.5t-56.5 210.5q0 113 31 213.5t87.5 176t138 120.5t186.5 45q76 0 147.5 -19.5t124.5 -45.5l-55 -344q-8 -47 -15.5 -105.5t-7.5 -89.5q0 -47 20.5 -75.5t74.5 -28.5q66 0 108.5 37.5t68 95t36 125t10.5 125.5 q0 262 -136.5 401t-414.5 139q-147 0 -264 -51t-198 -141t-123 -211t-42 -258q0 -154 42 -266.5t121 -186.5t188.5 -108.5t244.5 -34.5q92 0 181 17.5t169 45.5zM1040 674q-23 14 -58.5 21t-70.5 7q-55 0 -103 -31.5t-84 -87t-57.5 -130t-21.5 -160.5q0 -78 18.5 -121 t75.5 -43q29 0 60.5 13.5t63.5 34t60.5 46t51.5 51.5z" />
<glyph unicode="A" horiz-adv-x="1460" d="M944 0v111l168 18l-111 324h-571l-108 -324l165 -18v-111h-471v109l88 22q25 6 35.5 13.5t16.5 25.5l450 1313h238l459 -1315q6 -18 18 -24.5t31 -10.5l92 -22v-111h-500zM719 1323l-242 -721h479z" />
<glyph unicode="B" horiz-adv-x="1366" d="M125 0v111l129 14q23 4 28 11t5 30v1149q0 23 -5.5 31t-27.5 10l-129 14v113h610q131 0 217 -28t137.5 -77t72 -115.5t20.5 -142.5q0 -74 -21.5 -130t-56.5 -99t-80 -71.5t-92 -43.5v-6q176 -20 261 -117.5t85 -251.5q0 -115 -41 -191.5t-113.5 -122.5t-173 -66.5 t-221.5 -20.5h-604zM707 150q80 0 148.5 9t118.5 37.5t78.5 80t28.5 137.5q0 74 -25.5 126t-70.5 84.5t-106.5 47t-130.5 14.5h-275v-536h234zM653 829q61 0 122 11.5t109 40t78.5 81t30.5 134.5q0 141 -77.5 189t-231.5 48h-211v-504h180z" />
<glyph unicode="C" horiz-adv-x="1413" d="M1290 84q-41 -29 -96 -48.5t-119.5 -33.5t-135.5 -20.5t-140 -6.5q-188 0 -320.5 56.5t-217.5 158t-124 241.5t-39 310q0 166 46 307.5t137.5 244t229.5 159.5t323 57q135 0 254.5 -29.5t197.5 -80.5v-328l-139 8l-35 195q-2 14 -6 23.5t-21 13.5q-53 18 -120.5 31.5 t-139.5 13.5q-121 0 -219 -40t-166.5 -117t-106.5 -192.5t-38 -265.5q0 -301 137 -456.5t379 -155.5q70 0 148.5 9t138.5 34q12 4 18 11t10 26l33 184h131v-309z" />
<glyph unicode="D" horiz-adv-x="1570" d="M125 0v111l129 14q23 4 28 11t5 30v1149q0 23 -5.5 31t-27.5 10l-129 14v113h612q193 0 332 -50.5t228 -143.5t132.5 -226t43.5 -299q0 -170 -46.5 -311.5t-140.5 -241.5t-239.5 -155.5t-344.5 -55.5h-577zM700 150q293 0 435.5 156.5t142.5 430.5q0 172 -38 287 t-109.5 183.5t-177 98t-240.5 29.5h-238v-1185h225z" />
<glyph unicode="E" horiz-adv-x="1300" d="M125 0v111l129 14q23 4 28 11t5 30v1149q0 23 -5.5 31t-27.5 10l-129 14v113h1028v-338l-139 8l-29 158q-6 27 -35 26h-475v-516h547v-147h-547v-529h520q16 0 22.5 3.5t10.5 19.5l33 178h137v-346h-1073z" />
<glyph unicode="F" horiz-adv-x="1234" d="M125 0v111l129 14q23 4 28 11t5 30v1149q0 23 -5.5 31t-27.5 10l-129 14v113h1020v-338l-139 8l-29 158q-6 27 -35 26h-467v-510h539v-147h-539v-512q0 -25 5 -31t28 -10l301 -16v-111h-684z" />
<glyph unicode="G" horiz-adv-x="1511" d="M1380 569q-18 -2 -25 -8t-7 -26v-476q-47 -23 -106.5 -39t-124 -26t-132 -14.5t-129.5 -4.5q-207 0 -351.5 58.5t-234.5 162t-131 246t-41 310.5q0 162 46 301t138.5 240.5t230.5 158.5t323 57q131 0 253.5 -28.5t200.5 -81.5v-326l-139 10l-33 191q-4 14 -8 23.5 t-20 13.5q-53 18 -124 31.5t-143 13.5q-121 0 -219 -41t-166.5 -118t-105.5 -189.5t-37 -255.5q0 -305 147.5 -464t438.5 -159q55 0 128.5 9t123.5 22q14 4 21 10t7 25v362h-278l22 133h561v-112z" />
<glyph unicode="H" horiz-adv-x="1654" d="M1018 0v111l129 14q23 4 28 11t5 30v524h-705v-522q0 -25 5 -31t28 -10l137 -16v-111h-520v111l129 14q23 4 28 11t5 30v1151q0 23 -5.5 31t-27.5 10l-129 14v111h520v-111l-137 -16q-23 -4 -28 -10.5t-5 -28.5v-479h705v479q0 23 -5.5 31t-27.5 10l-129 14v111h520v-111 l-137 -16q-23 -4 -28 -10.5t-5 -28.5v-1149q0 -25 5 -31t28 -10l137 -16v-111h-520z" />
<glyph unicode="I" horiz-adv-x="782" d="M115 0v111l149 14q23 2 28 10t5 31v1151q0 23 -5 31t-28 10l-149 14v111h561v-111l-158 -16q-23 -4 -28 -10.5t-5 -28.5v-1149q0 -25 5.5 -31t27.5 -10l158 -16v-111h-561z" />
<glyph unicode="J" horiz-adv-x="1032" d="M596 1319q0 23 -6 30t-27 9l-174 14v111h565v-111l-137 -16q-23 -4 -28 -9.5t-5 -27.5v-1018q0 -166 -79.5 -246t-260.5 -80q-59 0 -112 7.5t-97.5 17.5t-77 23.5t-48.5 23.5v283l139 -8l20 -142q2 -18 25 -28q16 -6 52 -15.5t89 -9.5q96 0 129 45t33 141v1006z" />
<glyph unicode="K" horiz-adv-x="1505" d="M924 0v111l141 16l-430 569l-160 -174v-354q0 -25 5 -31t28 -10l137 -16v-111h-520v111l129 14q23 4 28 11t5 30v1151q0 23 -5.5 31t-27.5 10l-129 14v111h520v-111l-137 -16q-23 -4 -28 -10.5t-5 -28.5v-586l569 623l-126 16v113h460v-111l-104 -18q-29 -4 -38 -11.5 t-24 -23.5l-444 -479l504 -676q14 -18 23.5 -23.5t35.5 -9.5l125 -20v-111h-532z" />
<glyph unicode="L" horiz-adv-x="1267" d="M125 0v111l129 14q23 4 28 11t5 30v1149q0 23 -5.5 31t-27.5 10l-129 14v113h553v-113l-170 -16q-23 -2 -28 -9.5t-5 -29.5v-1170h520q16 0 22.5 3.5t10.5 19.5l33 184h137v-352h-1073z" />
<glyph unicode="M" horiz-adv-x="1949" d="M1276 0v111l170 14q23 2 28 10t5 31v1016l-412 -834h-199l-397 832v-1012q0 -25 5 -31t28 -10l178 -16v-111h-557v111l129 14q23 4 28 11t5 30v1149q0 23 -5.5 31t-27.5 10l-129 14v113h397l451 -973l467 973h393v-111l-137 -16q-23 -4 -28 -10.5t-5 -28.5v-1151 q0 -20 6 -27.5t27 -11.5l137 -16v-111h-557z" />
<glyph unicode="N" horiz-adv-x="1695" d="M1200 0l-747 1239v-1071q0 -25 5 -31t27 -10l138 -16v-111h-498v111l129 14q23 4 28 11t5 30v1151q0 23 -5.5 31t-27.5 10l-129 14v113h401l729 -1231v1063q0 23 -5 31t-27 10l-129 14v111h495v-111l-137 -16q-23 -4 -28 -10.5t-5 -28.5v-1317h-219z" />
<glyph unicode="O" horiz-adv-x="1591" d="M786 -25q-178 0 -307 57.5t-213 160t-124 245t-40 312.5q0 162 46.5 301t135.5 241.5t222 159.5t309 57q174 0 301 -57t210 -156.5t123 -234.5t40 -289q0 -182 -44 -328.5t-131 -251t-219.5 -161t-308.5 -56.5zM797 133q111 0 203 37t157.5 113.5t101 193.5t35.5 275 q0 297 -130 448.5t-353 151.5q-113 0 -207 -39t-162.5 -115t-106.5 -188.5t-38 -259.5q0 -154 36 -269.5t101.5 -192.5t157.5 -116t205 -39z" />
<glyph unicode="P" horiz-adv-x="1333" d="M125 0v111l129 14q23 4 28 11t5 30v1149q0 23 -5.5 31t-27.5 10l-129 14v113h633q141 0 236.5 -35t152.5 -95.5t80.5 -139t23.5 -166.5q0 -133 -38.5 -225.5t-111.5 -151t-177.5 -85t-233.5 -26.5h-217v-391q0 -25 5 -31t28 -10l293 -16v-111h-674zM674 709 q78 0 147.5 11t121.5 47t83 100.5t31 170.5q0 162 -89 228.5t-268 66.5h-227v-624h201z" />
<glyph unicode="Q" horiz-adv-x="1591" d="M1194 -336q-35 -20 -91 -33.5t-116 -13.5q-156 0 -217 67.5t-61 186.5q0 33 2 60.5t6 48.5q-160 10 -275.5 71.5t-190.5 162.5t-112 237.5t-37 298.5t46.5 301t135.5 241.5t222 159.5t309 57q174 0 302 -57t210 -156.5t122 -234.5t40 -289q0 -168 -38 -306t-112.5 -240.5 t-186.5 -165t-259 -78.5q-6 -41 -6 -86q0 -63 27.5 -98.5t101.5 -35.5q41 0 76.5 8.5t60.5 18.5zM797 133q113 0 204 37t156.5 113.5t101 193.5t35.5 275q0 297 -129 448.5t-352 151.5q-115 0 -209 -39t-162.5 -115t-106.5 -188.5t-38 -259.5q0 -154 36 -269.5t101.5 -192.5 t157.5 -116t205 -39z" />
<glyph unicode="R" horiz-adv-x="1392" d="M846 0v111l162 12l-170 424q-20 49 -49 67.5t-91 18.5h-225v-465q0 -25 5 -31t28 -10l135 -16v-111h-516v111l129 14q23 4 28 11t5 30v1149q0 23 -5.5 31t-27.5 10l-129 14v113h627q137 0 227 -35t142.5 -92.5t72.5 -129t20 -145.5q0 -164 -79.5 -259t-204.5 -140 q51 -23 71.5 -57.5t42.5 -92.5l140 -358q10 -25 25.5 -34t37.5 -13l125 -18v-109h-526zM662 780q74 0 138 12.5t112.5 46t77 90t28.5 146.5q0 78 -24.5 128t-74 79t-121 40t-165.5 11h-160v-553h189z" />
<glyph unicode="S" horiz-adv-x="1196" d="M901 1102l-31 174q-4 23 -9 31t-13 12q-23 12 -69 23.5t-126 11.5q-160 0 -236.5 -63.5t-76.5 -174.5q0 -63 25.5 -106t68.5 -73t99.5 -51.5t117.5 -39.5q76 -25 154 -52.5t141.5 -75.5t102 -122t38.5 -188q0 -119 -44 -202t-117.5 -134.5t-172 -74t-208.5 -22.5 q-70 0 -137.5 8.5t-124 19.5t-100.5 24.5t-68 25.5v336h137l39 -180q4 -20 11 -28.5t30 -16.5t81 -21.5t148 -13.5q158 0 246 61.5t88 196.5q0 68 -24.5 114t-66.5 76.5t-96.5 51t-113.5 39.5q-78 23 -157 48t-143.5 70t-105.5 117t-41 189q0 111 40 189.5t110 128.5 t164 74.5t201 24.5q129 0 228 -25.5t152 -45.5v-348z" />
<glyph unicode="T" horiz-adv-x="1351" d="M338 0v113l211 14q23 2 28 10t5 31v1169h-318q-16 0 -22 -3t-11 -19l-32 -178h-138v346h1229v-346h-137l-33 178q-4 16 -10 19t-23 3h-317v-1169q0 -23 5 -30t28 -9l225 -16v-113h-690z" />
<glyph unicode="U" horiz-adv-x="1613" d="M1169 1317q0 23 -5 31t-27 10l-129 14v111h508v-111l-138 -16q-23 -4 -27.5 -10.5t-4.5 -28.5v-821q0 -266 -142.5 -393.5t-404.5 -127.5q-143 0 -243.5 34t-164 99.5t-93.5 164t-30 227.5v817q0 23 -5 31t-27 10l-130 14v111h521v-111l-138 -16q-23 -4 -27.5 -10.5 t-4.5 -28.5v-795q0 -207 88 -297t266 -90q90 0 157.5 19.5t111.5 64.5t66.5 118t22.5 179v801z" />
<glyph unicode="V" horiz-adv-x="1419" d="M596 0l-436 1315q-6 18 -18.5 24.5t-30.5 10.5l-93 22l21 111h479v-111l-168 -18l375 -1192l383 1192l-166 18l21 111h446v-111l-86 -22q-18 -4 -31.5 -12.5t-19.5 -26.5l-422 -1311h-254z" />
<glyph unicode="W" horiz-adv-x="2033" d="M1286 0l-258 950l-274 -950h-234l-340 1313q-4 20 -13 27.5t-28 11.5l-121 20l21 111h514v-111l-182 -20l274 -1149l279 981h211l278 -998l289 1166l-186 20l20 111h479v-111l-106 -18q-23 -4 -31 -11.5t-14 -29.5l-330 -1313h-248z" />
<glyph unicode="X" horiz-adv-x="1431" d="M885 0v111l155 18l-342 504l-336 -504l150 -18v-111h-467v106l109 23q18 4 29.5 13.5t21.5 25.5l393 577l-385 570q-10 16 -20.5 23.5t-28.5 11.5l-96 22l20 111h469v-111l-154 -18l314 -477l323 477l-151 18l20 111h426v-111l-90 -22q-18 -4 -28.5 -13.5t-22.5 -25.5 l-375 -547l418 -596q10 -16 20.5 -23.5t28.5 -11.5l107 -22v-111h-508z" />
<glyph unicode="Y" horiz-adv-x="1267" d="M326 0v111l194 14q23 2 28 10t5 31v407l-410 742q-10 16 -20 23.5t-29 11.5l-92 22l21 111h458v-111l-153 -18l325 -613l316 613l-152 18l21 111h428v-111l-86 -22q-16 -4 -28.5 -13.5t-23.5 -25.5l-387 -731v-412q0 -25 5.5 -31t27.5 -10l205 -16v-111h-653z" />
<glyph unicode="Z" horiz-adv-x="1318" d="M102 0v125l852 1212h-614q-16 0 -22.5 -3t-10.5 -19l-39 -191l-139 -6v365h1055v-129l-846 -1209h655q16 0 22.5 3.5t10.5 19.5l39 219h139v-387h-1102z" />
<glyph unicode="[" horiz-adv-x="536" d="M127 -293v1776h346v-109l-137 -18q-23 -4 -28 -10.5t-5 -28.5v-1440q0 -23 5 -30t28 -11l137 -18v-111h-346z" />
<glyph unicode="\" horiz-adv-x="772" d="M600 -188l-573 1734h168l575 -1734h-170z" />
<glyph unicode="]" horiz-adv-x="536" d="M61 -293v111l138 18q23 4 27.5 11.5t4.5 29.5v1440q0 23 -5 29t-27 10l-138 18v109h347v-1776h-347z" />
<glyph unicode="^" horiz-adv-x="1126" d="M881 612l-324 584l-317 -584h-179l404 748h190l410 -748h-184z" />
<glyph unicode="_" horiz-adv-x="1024" d="M0 -371v140h1024v-140h-1024z" />
<glyph unicode="`" horiz-adv-x="1024" d="M637 1161l-361 289l125 123l316 -336z" />
<glyph unicode="a" horiz-adv-x="1107" d="M778 0l-18 133l-6 2q-74 -70 -163 -115t-208 -45q-96 0 -153.5 29t-87 72t-39 92t-9.5 88q0 154 93.5 229.5t279.5 92.5l276 22v109q0 55 -7 97t-29.5 69.5t-62.5 42t-107 14.5q-47 0 -86 -3t-69 -18.5t-46.5 -47.5t-16.5 -89l-176 19q0 94 39 149t98.5 85t128 38 t130.5 8q109 0 183.5 -17.5t120.5 -59.5t65.5 -111.5t19.5 -175.5v-543q0 -25 5 -31t28 -10l104 -14v-111h-287zM743 471l-231 -20q-66 -6 -110 -19.5t-69.5 -34t-35.5 -51.5t-10 -70q0 -84 35.5 -119.5t107.5 -35.5q45 0 91 16.5t87 40t76 51t59 50.5v192z" />
<glyph unicode="b" horiz-adv-x="1218" d="M172 0q10 57 17.5 138t7.5 155v1063q0 35 -27 43l-121 39l19 108h315v-592q72 47 157 83t193 36q86 0 158 -28.5t122 -90t78.5 -158t28.5 -231.5q0 -158 -31.5 -270.5t-88 -183t-136.5 -103.5t-176 -33q-184 0 -317 127l-6 -4l-11 -98h-182zM383 262q49 -47 123 -90 t158 -43q143 0 205.5 112.5t62.5 307.5q0 199 -69.5 284t-178.5 85q-90 0 -169 -38t-132 -77v-541z" />
<glyph unicode="c" horiz-adv-x="995" d="M932 61q-59 -39 -153.5 -62.5t-196.5 -23.5q-131 0 -225.5 39t-156 110t-90 170t-28.5 220q0 145 40 250.5t111.5 174.5t170 101.5t214.5 32.5q113 0 195 -23.5t117 -39.5v-273l-137 6l-25 136q-2 10 -6 17t-19 11q-23 8 -59.5 13.5t-79.5 5.5q-68 0 -128 -21.5t-104 -69 t-70 -123t-26 -186.5q0 -109 25 -183.5t69 -122.5t105.5 -69.5t134.5 -21.5q78 0 148.5 20.5t113.5 47.5z" />
<glyph unicode="d" horiz-adv-x="1216" d="M870 0l-16 135l-8 2q-72 -68 -156 -115t-205 -47q-88 0 -159.5 30t-121.5 93.5t-78 163.5t-28 242q0 152 33 259t89 177t135 101.5t171 31.5t173 -27.5t141 -70.5v383q0 33 -27 41l-123 39l19 108h313v-1380q0 -25 5 -31t28 -10l104 -14v-111h-289zM836 809 q-47 39 -123 75t-158 36q-72 0 -123 -30t-84 -84t-47 -130t-14 -168q0 -106 17.5 -179t49 -117t75.5 -62.5t97 -18.5q92 0 167 51t143 119v508z" />
<glyph unicode="e" horiz-adv-x="1046" d="M946 68q-78 -43 -170 -68t-203 -25q-139 0 -233 43t-151.5 117t-82 174.5t-24.5 214.5q0 141 37 244.5t100.5 171.5t148.5 100.5t181 32.5q94 0 172 -26.5t133 -85t86 -151.5t31 -226q0 -20 -1 -48t-3 -55h-688q2 -78 20 -141.5t55 -109.5t95.5 -71.5t142.5 -25.5 q43 0 79 4t70.5 13.5t69.5 22.5t76 34zM784 623q-2 88 -21.5 145t-51 92t-73.5 49.5t-89 14.5q-51 0 -97 -15.5t-82 -50.5t-59.5 -92t-29.5 -143h503z" />
<glyph unicode="f" horiz-adv-x="831" d="M82 0v113l131 12q23 2 28 10t5 31v725q0 10 -2 15t-15 5h-147v142h164v155q0 180 91 270.5t284 90.5q63 0 118.5 -9.5t97.5 -36t66.5 -74.5t24.5 -124l-174 -25q0 82 -35 106t-107 24q-57 0 -92 -15.5t-54.5 -43.5t-26.5 -67.5t-7 -89.5v-141q0 -10 2 -15t15 -5h335v-142 h-352v-741q0 -25 5 -32t28 -9l240 -18v-111h-623z" />
<glyph unicode="g" horiz-adv-x="1114" d="M903 907q33 -41 54.5 -91t21.5 -122q0 -90 -33 -160.5t-90 -118.5t-135 -73t-168 -25q-53 0 -97 6.5t-77 18.5l-92 -178l252 -14q137 -8 238.5 -18.5t167 -39.5t97 -81t31.5 -142q0 -154 -131 -242t-399 -88q-133 0 -224.5 17.5t-147.5 50.5t-80.5 79t-24.5 105 q0 76 35.5 127t88.5 105q-90 29 -90 110q0 27 11.5 53.5t33.5 59.5q25 35 54.5 72.5t58.5 74.5q-68 37 -111 112t-43 179q0 86 31 157.5t87.5 123t139 80t187.5 28.5q55 0 102 -5t80 -15h365v-131zM797 702q0 104 -63.5 163t-180.5 59q-113 0 -184.5 -56.5t-71.5 -177.5 q0 -45 13.5 -85t44 -69.5t77.5 -47t115 -17.5q117 0 183.5 62.5t66.5 168.5zM340 -10q-29 -29 -59.5 -73t-30.5 -97q0 -84 82 -109.5t233 -27.5q41 0 95.5 5t103.5 22.5t84 51t35 93.5q0 37 -14.5 57t-42 32.5t-67.5 17.5t-89 9z" />
<glyph unicode="h" horiz-adv-x="1290" d="M768 0v113l98 12q37 2 37 41v477q0 57 -6 106.5t-24.5 86t-52.5 58t-89 21.5q-47 0 -92 -12t-86 -30.5t-78 -42t-67 -48.5v-616q0 -25 5 -31t27 -10l115 -14v-111h-469v113l102 12q23 4 28 11t5 30v1190q0 35 -26 43l-123 39l18 108h316v-608q72 51 161.5 93t206.5 42 q166 0 241 -99.5t75 -273.5v-534q0 -25 5 -31t27 -10l117 -14v-111h-471z" />
<glyph unicode="i" horiz-adv-x="608" d="M418 1411q0 -131 -131 -131q-63 0 -98 34t-35 97q0 61 34.5 95t98.5 34q63 0 97 -34t34 -95zM53 0v113l135 12q23 2 28 10t5 31v696q0 35 -26 43l-117 39l18 109h312v-887q0 -25 5 -31t27 -10l131 -14v-111h-518z" />
<glyph unicode="j" horiz-adv-x="581" d="M217 862q0 35 -27 43l-131 39l19 109h325v-1186q0 -166 -71.5 -245t-222.5 -79q-96 0 -173 28t-114 58l74 121q27 -20 77 -39.5t107 -19.5q82 0 109.5 51t27.5 162v958zM418 1411q0 -63 -35 -97t-98 -34q-61 0 -96 34t-35 97q0 61 34.5 95t96.5 34q63 0 98 -34t35 -95z " />
<glyph unicode="k" horiz-adv-x="1210" d="M707 0v111l129 16l-256 424l-172 -193v-192q0 -25 5 -31t27 -10l123 -14v-111h-502v113l127 12q23 2 28 10t5 31v1190q0 35 -26 43l-123 39l18 108h318v-985l434 492h227v-111l-117 -24q-18 -4 -27.5 -9.5t-23.5 -21.5l-186 -209l311 -516q12 -18 22.5 -23.5t36.5 -9.5 l107 -18v-111h-485z" />
<glyph unicode="l" horiz-adv-x="608" d="M61 0v113l127 12q23 2 28 10t5 31v1190q0 35 -26 43l-123 39l18 108h318v-1380q0 -25 5 -31t27 -10l123 -14v-111h-502z" />
<glyph unicode="m" horiz-adv-x="1867" d="M1346 0v113l98 12q37 2 37 41v493q0 49 -7.5 94.5t-25.5 80t-52 56t-89 21.5q-84 0 -154 -32.5t-117 -67.5q6 -55 6 -125v-520q0 -25 5.5 -31t27.5 -10l101 -14v-111h-455v113l98 12q37 2 37 41v496q0 43 -4 88t-19.5 80.5t-46 58t-86.5 22.5q-80 0 -156.5 -40 t-135.5 -87v-618q0 -25 5 -31t27 -10l111 -14v-111h-465v113l102 12q23 4 28 11t5 30v696q0 35 -26 43l-117 39l18 109h269l16 -121l6 -2q82 63 165 103t198 40q74 0 143.5 -29.5t107.5 -101.5q68 49 158 90t205 41q88 0 146.5 -26.5t93 -75.5t49 -120t14.5 -159v-526 q0 -25 5 -31t28 -10l117 -14v-111h-471z" />
<glyph unicode="n" horiz-adv-x="1290" d="M768 0v113l98 12q37 2 37 41v485q0 49 -6 96.5t-25.5 84t-54.5 59t-92 22.5q-88 0 -169 -37.5t-148 -93.5v-616q0 -25 5 -31t27 -10l115 -14v-111h-469v113l102 12q23 4 28 11t5 30v696q0 35 -26 43l-117 39l18 109h269l16 -121l6 -2q80 57 174 100t205 43 q88 0 149.5 -27.5t100.5 -76.5t56.5 -118t17.5 -153v-532q0 -25 5 -31t27 -10l117 -14v-111h-471z" />
<glyph unicode="o" horiz-adv-x="1163" d="M575 -25q-133 0 -227 41t-153.5 115t-86 175.5t-26.5 223.5q0 121 30.5 220.5t94 171t161 111.5t228.5 40t223 -40t150.5 -110.5t85 -168t26.5 -211.5q0 -129 -29.5 -233.5t-92 -179.5t-158 -115t-226.5 -40zM582 125q150 0 228.5 97t78.5 308q0 203 -74 295.5t-223 92.5 q-152 0 -235 -92.5t-83 -297.5q1 -403 308 -403z" />
<glyph unicode="p" horiz-adv-x="1239" d="M100 -434v112l84 13q23 4 29 11t6 30v1130q0 35 -26 43l-117 39l18 109h271l18 -119l6 -2q86 63 174 102t193 39q86 0 156.5 -28.5t121.5 -90t79 -158t28 -231.5q0 -115 -21.5 -221t-71 -188t-131 -131.5t-202.5 -49.5q-88 0 -164 25t-148 88v-354q0 -25 5.5 -32t27.5 -9 l193 -17v-110h-529zM403 262q53 -51 126 -92t155 -41q145 0 206.5 112.5t61.5 307.5q0 104 -19.5 175t-51 113t-74.5 60t-90 18q-49 0 -96.5 -13t-88 -32.5t-73.5 -41t-56 -40.5v-526z" />
<glyph unicode="q" horiz-adv-x="1193" d="M655 -434v110l154 15q23 2 29 10t6 31v399l-6 2q-66 -61 -148 -109.5t-198 -48.5q-90 0 -162 30t-124 92.5t-80 162.5t-28 242q0 150 33 258t89 178t134 102.5t168 32.5q98 0 179 -29.5t141 -76.5l22 86h176q-10 -78 -15 -146.5t-5 -138.5v-1036q0 -23 5 -30t28 -11 l104 -13v-112h-502zM834 809q-47 41 -123 76t-158 35q-72 0 -123 -30t-83 -84t-46 -129t-14 -167q0 -109 17.5 -180.5t48 -116.5t74.5 -63.5t97 -18.5q92 0 170 55.5t140 124.5v498z" />
<glyph unicode="r" horiz-adv-x="886" d="M86 0v113l102 12q23 4 28 11t5 30v696q0 35 -26 43l-117 39l18 109h269l20 -142l6 -2q25 29 56.5 57.5t70.5 52t83 39t97 15.5q35 0 77 -5t71 -13v-310l-146 7l-24 141q-2 20 -25 20q-35 0 -70.5 -14t-68.5 -33.5t-59.5 -42t-44.5 -39.5v-616q0 -25 5 -32t27 -9l189 -16 v-111h-543z" />
<glyph unicode="s" horiz-adv-x="942" d="M702 760l-24 127q-2 10 -5 16t-16 10q-23 8 -64.5 15.5t-94.5 7.5q-113 0 -165 -44t-52 -110q0 -43 21.5 -71.5t56 -47t81.5 -32t97 -25.5q59 -16 118.5 -35.5t107.5 -53.5t77.5 -87t29.5 -135q0 -90 -34.5 -150.5t-92 -98.5t-132 -54.5t-156.5 -16.5q-61 0 -122 8.5 t-112 18.5t-87 22.5t-50 20.5v272l137 -8l25 -141q2 -10 6 -17.5t18 -11.5q20 -8 71.5 -20.5t129.5 -12.5q104 0 164.5 39t60.5 123q0 45 -20.5 76t-54 50.5t-78.5 31.5t-94 25q-59 14 -120 31.5t-110 49t-79.5 85t-30.5 137.5q0 88 33.5 148.5t91 98t130 55t152.5 17.5 q55 0 106.5 -6t94.5 -15.5t74.5 -19.5t48.5 -16v-264z" />
<glyph unicode="t" horiz-adv-x="843" d="M786 39q-61 -25 -133.5 -44.5t-150.5 -19.5q-147 0 -216 69t-69 208v639q0 10 -2 15t-14 5h-150v119q59 8 99 25.5t67 50.5t41 86t25 131h120v-250q0 -10 2.5 -15t14.5 -5h301v-142h-318v-604q0 -98 30 -138t118 -40q47 0 98 12.5t92 28.5z" />
<glyph unicode="u" horiz-adv-x="1284" d="M926 0l-17 139l-4 2q-35 -31 -76 -60.5t-89 -53t-105 -38t-125 -14.5q-84 0 -141.5 26t-91 73t-48 116.5t-14.5 157.5v520q0 25 -5 34t-28 13l-106 27l16 111h309v-662q0 -133 32 -198.5t128 -65.5q51 0 99.5 16.5t90.5 42t77.5 57t62.5 62.5v565q0 25 -5 33t-28 12 l-102 27l16 111h305v-885q0 -41 29 -43l108 -14v-111h-288z" />
<glyph unicode="v" horiz-adv-x="1185" d="M494 0l-347 887q-8 18 -16 24.5t-27 10.5l-88 18l25 113h430v-113l-141 -16l276 -764l281 764l-137 16l22 113h397v-113l-67 -12q-23 -4 -33 -10.5t-18 -24.5l-344 -893h-213z" />
<glyph unicode="w" horiz-adv-x="1720" d="M1083 0l-196 811l-225 -811h-226l-289 887q-6 18 -15 24.5t-28 10.5l-88 18l25 113h412v-113l-131 -16l229 -736l235 834h215l199 -832l227 734l-133 16l23 113h387v-113l-74 -12q-27 -4 -36 -12.5t-15 -28.5l-276 -887h-220z" />
<glyph unicode="x" horiz-adv-x="1175" d="M670 0v111l127 18l-228 297l-235 -297l135 -18v-111h-446v111l108 20q16 4 25.5 10t23.5 23l291 362l-278 357q-14 16 -22.5 22t-27.5 13l-90 22l21 113h430v-113l-127 -16l217 -279l225 279l-129 16l21 113h397v-113l-94 -20q-18 -6 -28.5 -14.5t-22.5 -24.5l-271 -334 l297 -379q14 -16 24.5 -24.5t28.5 -12.5l113 -20v-111h-485z" />
<glyph unicode="y" horiz-adv-x="1191" d="M201 -434v112l147 19q18 2 26.5 11t18.5 32l119 272l-369 873q-8 18 -16 24t-27 11l-84 20l25 113h424v-113l-135 -16l272 -688l285 688l-139 16l22 113h406v-113l-70 -10q-18 -4 -30.5 -11.5t-20.5 -23.5l-498 -1198l199 -21v-110h-555z" />
<glyph unicode="z" horiz-adv-x="999" d="M80 0v111l612 804h-405q-12 0 -16.5 -8t-6.5 -18l-24 -129l-140 -8v301h820v-115l-609 -801h432q14 0 17.5 8.5t5.5 18.5l25 151l141 7v-322h-852z" />
<glyph unicode="{" horiz-adv-x="593" d="M514 -301q-90 6 -155.5 21.5t-106.5 45t-60.5 75.5t-19.5 116q0 86 13.5 190.5t13.5 202.5q0 55 -13.5 90t-37 54.5t-55.5 26.5t-68 9v121q37 2 68.5 9.5t55 27t37 54t13.5 89.5q0 49 -4.5 101.5t-9.5 105t-9 101.5t-4 92q0 70 19.5 116t60.5 75.5t106.5 45t155.5 21.5 l21 -119q-49 -10 -83 -20.5t-54.5 -25.5t-30 -38.5t-9.5 -62.5q0 -82 13.5 -186.5t13.5 -207.5q0 -59 -11.5 -99t-30.5 -67.5t-45 -44t-52 -28.5q27 -12 52.5 -28.5t44.5 -43t30.5 -66.5t11.5 -100q0 -102 -13.5 -202.5t-13.5 -184.5q0 -39 9.5 -62.5t30 -39t54 -25.5 t83.5 -20z" />
<glyph unicode="|" horiz-adv-x="573" d="M203 -293v1839h168v-1839h-168z" />
<glyph unicode="}" horiz-adv-x="593" d="M59 -182q49 10 83 20t54.5 25.5t30 39t9.5 62.5q0 84 -13.5 184.5t-13.5 202.5q0 59 11 99.5t30.5 67t44 43t53.5 28.5q-29 12 -53.5 28.5t-44 44t-30.5 67.5t-11 99q0 102 13.5 207t13.5 187q0 39 -9.5 62.5t-30 38.5t-54 25.5t-83.5 20.5l21 119q90 -6 154.5 -21.5 t106.5 -45t61.5 -76t19.5 -115.5q0 -43 -4 -92t-9.5 -101.5t-9.5 -104.5t-4 -102q0 -55 13.5 -89.5t37 -54t55 -27t68.5 -9.5v-121q-37 -2 -68.5 -9t-55 -26.5t-37 -54t-13.5 -90.5q0 -98 13.5 -202.5t13.5 -190.5q0 -70 -19.5 -116t-61.5 -75.5t-106.5 -45t-154.5 -21.5z " />
<glyph unicode="~" horiz-adv-x="987" d="M954 834q-23 -102 -65.5 -166t-136.5 -64q-55 0 -118 14.5t-124 33t-118.5 32.5t-102.5 14q-49 0 -80 -25.5t-66 -82.5l-104 47q39 94 92 155.5t145 61.5q57 0 118 -14.5t119 -33t113.5 -32.5t104.5 -14t70.5 26.5t42.5 83.5z" />
<glyph unicode="&#xa1;" horiz-adv-x="536" d="M358 659l25 -759v-340h-207v340l29 759h153zM418 938q0 -129 -135 -129t-136 129q0 129 136 129q135 0 135 -129z" />
<glyph unicode="&#xa2;" horiz-adv-x="1091" d="M657 352q35 4 64 9.5t45 9.5q14 4 17 11t5 17l25 133l129 7v-273q-37 -18 -111.5 -38.5t-173.5 -24.5v-203h-145v209q-184 23 -290.5 143.5t-106.5 358.5q0 115 28.5 204t80.5 151t125 100t163 53v211h145v-205q100 -4 170 -23.5t111 -38.5v-268l-131 6l-23 133 q-2 10 -6 17.5t-18 11.5q-16 4 -43 9t-60 7v-727zM512 1067q-92 -29 -146.5 -112t-54.5 -232q0 -160 52.5 -245t148.5 -113v702z" />
<glyph unicode="&#xa3;" horiz-adv-x="1134" d="M98 0l-26 121q57 43 87.5 85t46 92t18.5 111.5t3 145.5v145h-164v148h164v217q0 92 21.5 173t75 141.5t140.5 95t220 34.5q70 0 133.5 -11t112.5 -44t78.5 -92t29.5 -154l-172 -24q0 55 -14 91t-39 55.5t-59.5 26.5t-75.5 7q-72 0 -122 -16.5t-81 -55.5t-45 -102.5 t-14 -155.5v-186h387v-148h-387v-155q0 -66 -4 -121t-17.5 -104.5t-39 -93.5t-70.5 -87h555q16 0 21 4t9 19l33 174h135v-336h-940z" />
<glyph unicode="&#xa5;" horiz-adv-x="1208" d="M778 889h203v-127h-272v-148h272v-127h-272v-319q0 -25 5 -32t27 -9l203 -16v-111h-651v111l192 14q23 2 29 9t6 34v319h-270v127h270v148h-270v127h194l-266 424q-10 16 -21.5 24.5t-29.5 12.5l-92 22l20 111h453v-111l-146 -18l261 -443l264 443l-144 18l21 111h410 v-111l-84 -20q-33 -8 -54 -41z" />
<glyph unicode="&#xab;" horiz-adv-x="888" d="M295 211l-178 319l182 306h168l-154 -281q-8 -14 -8 -20.5t6 -18.5l152 -305h-168zM614 211l-178 319l182 306h168l-154 -281q-8 -14 -8 -20.5t6 -18.5l152 -305h-168z" />
<glyph unicode="&#xad;" d="M41 506v182h555v-182h-555z" />
<glyph unicode="&#xbb;" horiz-adv-x="886" d="M102 211l152 291q8 14 8 20t-6 19l-154 295h168l181 -314l-181 -311h-168zM421 211l152 291q8 14 8 20t-6 19l-154 295h168l181 -314l-181 -311h-168z" />
<glyph unicode="&#xbf;" horiz-adv-x="972" d="M709 662v-363q-80 -6 -156 -24.5t-135.5 -56.5t-96 -101.5t-36.5 -159.5q0 -111 66.5 -175.5t193.5 -64.5q68 0 110.5 9.5t65.5 21.5q10 6 14 14.5t8 30.5l21 117l145 10v-287q-51 -20 -151.5 -46.5t-220.5 -26.5q-98 0 -182.5 19.5t-144.5 64.5t-94 120.5t-34 190.5 q0 106 31.5 186t90 137.5t139.5 92.5t179 51v240h187zM479 938q0 129 135 129t136 -129q0 -129 -136 -129q-135 0 -135 129z" />
<glyph unicode="&#x192;" horiz-adv-x="1110" d="M567 770l-108 -610q-16 -92 -42 -157.5t-68 -107.5t-101.5 -61.5t-141.5 -19.5q-78 0 -153.5 24.5t-114.5 52.5l58 127q35 -23 94 -43t119 -20q68 0 107.5 38t57.5 140l113 617q2 10 0 15t-14 5h-191l25 137h207l45 254q14 86 40.5 151.5t69.5 108.5t105.5 65.5 t148.5 22.5q100 0 168 -23.5t105 -43.5l-45 -262l-123 8l-2 139q0 10 -3 16.5t-16 10.5q-16 6 -33.5 11t-54.5 5q-92 0 -130 -56.5t-54 -152.5l-41 -233q-2 -10 0 -15.5t14 -5.5h289l-25 -137h-305z" />
<glyph unicode="&#x2000;" horiz-adv-x="809" />
<glyph unicode="&#x2001;" horiz-adv-x="1618" />
<glyph unicode="&#x2002;" horiz-adv-x="809" />
<glyph unicode="&#x2003;" horiz-adv-x="1618" />
<glyph unicode="&#x2004;" horiz-adv-x="539" />
<glyph unicode="&#x2005;" horiz-adv-x="404" />
<glyph unicode="&#x2006;" horiz-adv-x="269" />
<glyph unicode="&#x2007;" horiz-adv-x="269" />
<glyph unicode="&#x2008;" horiz-adv-x="202" />
<glyph unicode="&#x2009;" horiz-adv-x="323" />
<glyph unicode="&#x200a;" horiz-adv-x="89" />
<glyph unicode="&#x2010;" d="M41 506v182h555v-182h-555z" />
<glyph unicode="&#x2011;" d="M41 506v182h555v-182h-555z" />
<glyph unicode="&#x2012;" d="M41 506v182h555v-182h-555z" />
<glyph unicode="&#x2013;" horiz-adv-x="1024" d="M0 506v141h1022v-141h-1022z" />
<glyph unicode="&#x2014;" horiz-adv-x="2048" d="M0 506v141h2046v-141h-2046z" />
<glyph unicode="&#x2018;" horiz-adv-x="368" d="M279 1133q-45 2 -82 6t-64 17t-42 35.5t-15 61.5q0 25 9 49.5t21 49.5l105 207l90 -33l-55 -195q-4 -14 10 -20l63 -27z" />
<glyph unicode="&#x2019;" horiz-adv-x="366" d="M82 1163l55 193q6 16 -8 22l-66 27l41 154q45 -2 82 -7.5t63.5 -18.5t42 -35.5t15.5 -61.5q0 -43 -26 -97l-109 -206z" />
<glyph unicode="&#x201a;" horiz-adv-x="368" d="M90 -219l55 192q6 16 -10 23l-65 27l41 153q45 -2 82.5 -7t64.5 -18.5t42 -36t15 -61.5q0 -23 -9 -48t-21 -50l-105 -205z" />
<glyph unicode="&#x201c;" horiz-adv-x="675" d="M279 1133q-45 2 -82 6t-64 17t-42 35.5t-15 61.5q0 25 9 49.5t21 49.5l105 207l90 -33l-55 -195q-4 -14 10 -20l63 -27zM586 1133q-45 2 -82 6t-64 17t-42 35.5t-15 61.5q0 25 9 49.5t21 49.5l105 207l90 -33l-55 -195q-4 -14 10 -20l63 -27z" />
<glyph unicode="&#x201d;" horiz-adv-x="673" d="M82 1163l55 193q6 16 -8 22l-66 27l41 154q45 -2 82 -7.5t63.5 -18.5t42 -35.5t15.5 -61.5q0 -43 -26 -97l-109 -206zM389 1163l55 193q6 16 -8 22l-66 27l41 154q45 -2 82 -7.5t63.5 -18.5t42 -35.5t15.5 -61.5q0 -43 -26 -97l-109 -206z" />
<glyph unicode="&#x201e;" horiz-adv-x="675" d="M90 -219l55 192q6 16 -10 23l-65 27l41 153q45 -2 82.5 -7t64.5 -18.5t42 -36t15 -61.5q0 -23 -9 -48t-21 -50l-105 -205zM397 -219l55 192q6 16 -10 23l-65 27l41 153q45 -2 82.5 -7t64.5 -18.5t42 -36t15 -61.5q0 -23 -9 -48t-21 -50l-105 -205z" />
<glyph unicode="&#x2026;" horiz-adv-x="1157" d="M341 104q0 -129 -135 -129t-135 129t135 129q66 0 100.5 -31.5t34.5 -97.5zM714 104q0 -129 -135 -129t-135 129t135 129q66 0 100.5 -31.5t34.5 -97.5zM1089 104q0 -129 -135 -129t-135 129t135 129q66 0 100.5 -31.5t34.5 -97.5z" />
<glyph unicode="&#x202f;" horiz-adv-x="323" />
<glyph unicode="&#x2039;" horiz-adv-x="569" d="M295 211l-178 319l182 306h168l-154 -281q-8 -14 -8 -20.5t6 -18.5l152 -305h-168z" />
<glyph unicode="&#x203a;" horiz-adv-x="567" d="M102 211l152 291q8 14 8 20t-6 19l-154 295h168l181 -314l-181 -311h-168z" />
<glyph unicode="&#x205f;" horiz-adv-x="404" />
<glyph unicode="&#x20ac;" horiz-adv-x="1138" d="M72 926h96q20 139 68.5 247.5t119 183.5t159.5 113.5t190 38.5q111 0 195.5 -23.5t125.5 -45.5v-297l-131 8l-27 152q-2 12 -6 21t-20 13q-47 20 -146 21q-129 0 -219 -111.5t-119 -320.5h420l-24 -125h-406v-47v-44.5t2 -41.5h385l-24 -125h-351q29 -193 112 -305.5 t222 -112.5q41 0 82 5t64 15q16 6 20 15.5t6 21.5l27 150l131 8v-297q-18 -10 -53 -21.5t-80 -21.5t-98.5 -17.5t-108.5 -7.5q-229 0 -357 147.5t-161 420.5h-162l25 125h127v133h-109z" />
<glyph unicode="&#x25fc;" horiz-adv-x="1055" d="M0 1055h1055v-1055h-1055v1055z" />
</font>
</defs>
</svg>
